<svg id="paths" xmlns="http://www.w3.org/2000/svg" viewBox="0 0 1440 480">
  <g id="endPaths">
    <path id="end4" d="M124.93,394.05C392,580,762.54,110.27,408,63,243,41,291-52,161-76.82-41.8-115.53-158.88,125.47-62.44,173.56,145,277,13.51,316.48,124.93,394.05Z"/>
    <path id="end3" d="M1257.1,21.08c-200.34,164-23.09,385.06-237,440.58C803,518,708.8,630,893,624c215-7,256-297,556.6-306.85C1887.83,302.8,1614-271,1257.1,21.08Z"/>
    <path id="end2" d="M211,110C-26.16-139.87-181.91-49.48-80.3,200.18,23,454,67,547.81,276,589c416,82,528.73-246.78,305.22-311.1C380,220,374.12,281.86,211,110Z"/>
    <path id="end1" d="M1189-77c-150,270-469,1.3-457,317,6,158,241.79,310.31,497,286,210-20,250.69-195.23,254-364C1488-93,1301.08-278.74,1189-77Z"/>
  </g>
  <g id="startPaths">
    <path id="start4" d="M214.93,534.05C482,720,882.54,80.27,528,33,363,11,421-102,291-126.82,88.2-165.53-8.88,135.47,87.56,183.56,295,287,103.51,456.48,214.93,534.05Z"/>
    <path id="start3" d="M1137.1-8.92c-200.34,164-63.09,365.06-277,420.58C643,468,718.8,640,903,634c215-7,196-227,496.6-236.85C1837.83,382.8,1494-301,1137.1-8.92Z"/>
    <path id="start2" d="M171,120C-66.16-129.87-221.91,10.52-120.3,260.18-17,514,157,597.81,366,639c416,82,438.73-366.78,215.22-431.1C380,150,334.12,291.86,171,120Z"/>
    <path id="start1" d="M1189-187c-150,270-449-8.7-437,307,6,158,161.79,380.31,417,356,210-20,370.69-215.23,374-384C1548-163,1301.08-388.74,1189-187Z"/>
  </g>
</svg>