<svg id="Livello_1" data-name="Livello 1" xmlns="http://www.w3.org/2000/svg" viewBox="0 0 1362 210">
  <title>bg-drupal-con</title>
  <polygon points="1301.83 84.16 1301.83 120.4 1270.32 102.24 1301.83 84.16" style="fill: #3c2871"/>
  <polygon points="13.45 205.38 5.43 210 5.47 210 13.48 205.38 13.45 205.38" style="fill: none"/>
  <polygon points="7.47 84.61 9.87 85.98 9.87 83.23 7.47 84.61" style="fill: none"/>
  <polygon points="9.87 178.84 0 184.52 0 184.54 9.87 178.86 9.87 178.84" style="fill: none"/>
  <polygon points="9.87 93.03 9.87 93.01 0 98.7 0 98.71 9.87 93.03" style="fill: none"/>
  <rect x="15.92" y="205.38" height="4.62" style="fill: none"/>
  <rect x="90.6" y="205.38" height="4.62" style="fill: none"/>
  <rect x="115.41" y="205.38" height="4.62" style="fill: none"/>
  <polygon points="126.17 205.38 118.05 205.38 122.12 207.72 126.17 205.38" style="fill: none"/>
  <rect x="40.82" y="205.38" height="4.62" style="fill: none"/>
  <polygon points="18.37 205.38 26.42 210 26.43 210 18.38 205.38 18.37 205.38" style="fill: none"/>
  <rect x="65.7" y="205.38" height="4.62" style="fill: none"/>
  <polygon points="63.15 205.38 55.14 210 55.15 210 63.16 205.38 63.15 205.38" style="fill: none"/>
  <rect x="343.53" y="205.38" width="17.58" height="4.62" style="fill: none"/>
  <polygon points="512.98 205.38 504.96 210 520.01 210 528.02 205.38 512.98 205.38" style="fill: none"/>
  <rect x="279.01" y="205.38" height="4.62" style="fill: none"/>
  <polygon points="76.31 210 68.26 205.38 68.25 205.38 76.3 210 76.31 210" style="fill: none"/>
  <rect x="480.34" y="205.38" width="7.85" height="4.62" style="fill: none"/>
  <polygon points="324.65 205.38 296.89 205.38 288.87 210 323.48 210 320.05 208.03 324.65 205.38" style="fill: none"/>
  <polygon points="392.54 205.38 392.54 207.97 388.03 205.38 371.88 205.38 379.93 210 423.45 210 423.45 205.38 392.54 205.38" style="fill: none"/>
  <polygon points="461.44 205.38 455.46 205.38 455.46 208.82 449.47 205.38 439.35 205.38 447.39 210 457.52 210 455.46 208.82 461.44 205.38" style="fill: none"/>
  <polygon points="9.87 150.25 9.87 150.23 0 155.91 0 155.93 9.87 150.25" style="fill: none"/>
  <polygon points="238.31 205.38 246.36 210 255.6 210 255.6 205.38 238.31 205.38" style="fill: none"/>
  <polygon points="361.11 205.38 361.11 210 379.93 210 371.88 205.38 361.11 205.38" style="fill: #7fbb4f"/>
  <polygon points="9.87 171.89 0 166.23 0 184.52 9.87 178.84 9.87 171.89" style="fill: #bad9ed"/>
  <polygon points="9.87 143.29 0 137.63 0 155.91 9.87 150.23 9.87 143.29" style="fill: #222d58"/>
  <polygon points="9.87 93.01 9.87 85.98 7.47 84.61 6.98 84.89 6.98 84.32 0 80.32 0 98.7 9.87 93.01" style="fill: #08547a"/>
  <polygon points="9.87 150.25 0 155.93 0 166.15 9.87 171.81 9.87 150.25" style="fill: #0572b6"/>
  <polygon points="0 166.15 0 166.23 9.87 171.89 9.87 171.81 0 166.15" style="fill: #0572b6"/>
  <polygon points="9.87 122.5 0 127.72 0 137.54 9.87 143.2 9.87 122.5" style="fill: #3d768b"/>
  <polygon points="9.87 143.2 0 137.54 0 137.63 9.87 143.29 9.87 143.2" style="fill: #3d768b"/>
  <polygon points="9.87 121.64 0 127.32 0 127.72 9.87 122.5 9.87 121.64" style="fill: #3d768b"/>
  <polygon points="0 108.51 9.87 113.71 9.87 93.03 0 98.71 0 108.51" style="fill: #223870"/>
  <polygon points="9.87 113.71 0 108.51 0 109.02 9.87 114.67 9.87 113.71" style="fill: #223870"/>
  <polygon points="104.76 210 104.82 210 112.83 205.38 112.78 205.38 104.76 210" style="fill: #7fbb4f"/>
  <polygon points="392.54 205.38 388.03 205.38 392.54 207.97 392.54 205.38" style="fill: #146080"/>
  <polygon points="596 166.71 596 195.32 620.88 180.99 596 166.71" style="fill: #3c2871"/>
  <polygon points="324.65 205.38 320.05 208.03 323.48 210 343.53 210 343.53 205.38 324.65 205.38" style="fill: #e2adcf"/>
  <polygon points="261.13 205.38 261.05 205.38 269.1 210 269.18 210 261.13 205.38" style="fill: #e8417b"/>
  <polygon points="6.98 56.78 6.98 28.17 0 32.19 0 52.78 6.98 56.78" style="fill: #e15929"/>
  <polygon points="9.87 83.23 9.87 57.94 6.98 56.28 6.98 84.32 7.47 84.61 9.87 83.23" style="fill: #e22b4b"/>
  <polygon points="7.47 84.61 6.98 84.32 6.98 84.89 7.47 84.61" style="fill: #e22b4b"/>
  <polygon points="520.01 210 534.92 210 534.92 205.38 528.02 205.38 520.01 210" style="fill: #27a568"/>
  <polygon points="648.88 196.09 624 181.82 624 210 624.75 210 648.88 196.09" style="fill: #248da9"/>
  <polygon points="455.46 205.38 449.47 205.38 455.46 208.82 455.46 205.38" style="fill: #166495"/>
  <polygon points="461.44 205.38 455.46 208.82 457.52 210 480.34 210 480.34 205.38 461.44 205.38" style="fill: #597bb7"/>
  <polygon points="488.19 205.38 488.19 210 504.96 210 512.98 205.38 488.19 205.38" style="fill: #cad420"/>
  <polygon points="423.45 205.38 423.45 210 447.39 210 439.35 205.38 423.45 205.38" style="fill: #1d9cd8"/>
  <polygon points="15.9 203.97 13.45 205.38 13.48 205.38 15.92 203.98 15.9 203.97" style="fill: none"/>
  <polygon points="15.92 203.98 15.92 203.96 15.92 203.96 15.92 203.98 15.92 203.98 15.92 205.38 15.92 205.38 15.92 203.98 15.92 203.98" style="fill: none"/>
  <polygon points="9.87 150.25 15.92 146.76 15.9 146.75 9.87 150.23 9.87 150.25" style="fill: none"/>
  <polygon points="15.92 146.76 15.92 175.28 15.92 175.28 15.92 174.87 15.92 146.76 15.92 146.74 15.92 146.74 15.92 146.76 15.92 146.76" style="fill: none"/>
  <rect x="115.41" y="203.9" height="1.48" style="fill: none"/>
  <path d="M542,161.74v28.61l-24.88-14.27ZM354.64,190.47,334.81,179.1l19.83-11.42ZM465,158.21l24.88,14.27L465,186.82Zm-5-16.14v28.61L435.12,156.4Zm-51,29.75,24.88,14.28L409,200.43Zm-11-28.66v27l-23.47-13.46Zm-37,10,23.47,13.47L361,180.15Zm-29.06-48.79,24.87,14.27L331.94,133Zm-7.28,46,24.87,14.28L324.66,179Zm-14.54,26.11,21.49,12.33-21.49,12.38ZM182,168V139.34l24.88,14.27Zm45.45-22V174.6l-24.87-14.28Zm-22.74,40.7L189.55,178l15.16-8.74Zm45.82,13.64v-27L274,186.8Zm25.15-17.84L250.8,168.22l24.88-14.33Zm25.69,15.91L277.9,184.93l23.47-13.52Zm1.07-43.76-24.88-14.27L302.44,126ZM267.81,92.23l24.88,14.28-24.88,14.33Zm-3.47-12.36v28.61L239.46,94.2ZM234.83,111.8l24.87,14.27-24.87,14.34Zm-24.24,91.91v-27l23.47,13.47ZM205,102l24.88,14.27L205,130.59Zm-3,9v28.61l-24.88-14.28Zm-183.34.17V82.54L43.54,96.82Zm22.16,78.49V161h0v-29.1L65.7,146.2l-.44.25.44.25L40.82,161,65.7,175.31ZM65.7,175.31,40.82,161,65.7,146.7Zm0-29.11L40.82,131.93,65.7,117.59ZM47.33,123.6V99.37L68.4,111.46Zm43.27,8.82V161L65.72,146.7l24.84-14.31h0L65.7,146.7,90.58,161,65.7,175.31V146.7h0V118.09l24.86,14.27L115.41,118V146.6l.07,0L90.6,161V132.42Zm30.86,10.83V114.64l24.88,14.27ZM135,153.85l18.18,10.43L135,174.76Zm-6-9.2v28.61L104.12,159ZM93.06,126.88V98.27l24.87,14.28Zm24.94,75L93.12,187.59,118,173.26Zm5,3.44V176.7L147.88,191Zm43.8-14.91-17.38-10,17.38-10ZM160,157.9l-24.88-14.27L160,129.3Zm-35-100,24.88,14.27L125,86.53Zm11.59,32.84v28.61L111.67,105.1ZM105,62.42V91L80.12,76.75Zm-32,32L48.12,80.09,73,65.76ZM34,16.23,58.88,30.5,34,44.84Z" style="fill: none"/>
  <polygon points="324.66 150.4 324.66 179.01 349.53 164.68 324.66 150.4" style="fill: #7dc7c8"/>
  <polygon points="361.11 199.2 361.11 205.38 371.88 205.38 361.11 199.2" style="fill: #7fbb4f"/>
  <polygon points="65.72 203.92 68.26 205.38 76.31 210 90.6 210 90.6 205.38 90.6 189.59 65.72 203.92" style="fill: #30b9d0"/>
  <polygon points="90.6 189.59 90.6 205.38 90.6 210 104.76 210 112.78 205.38 115.41 203.87 115.41 203.9 115.41 203.9 115.41 203.87 115.44 203.88 115.47 203.86 90.6 189.59" style="fill: #44ac4a"/>
  <polygon points="202 110.98 177.12 125.31 202 139.59 202 110.98" style="fill: #597bb7"/>
  <polygon points="205 101.98 205 130.59 229.88 116.25 205 101.98" style="fill: #346d48"/>
  <polygon points="65.72 146.71 90.6 160.98 90.6 132.42 90.56 132.39 65.72 146.71" style="fill: #1d9cd8"/>
  <polygon points="115.47 146.64 115.41 146.6 115.41 146.65 90.6 132.42 90.6 160.98 115.47 146.64" style="fill: #223870"/>
  <polygon points="73 94.37 73 65.76 48.12 80.09 73 94.37" style="fill: #1e75ba"/>
  <polygon points="93.06 98.27 93.06 126.88 117.93 112.55 93.06 98.27" style="fill: #248da9"/>
  <polygon points="227.45 145.99 202.58 160.32 227.45 174.6 227.45 145.99" style="fill: #1c4487"/>
  <polygon points="182 167.95 206.88 153.62 182 139.34 182 167.95" style="fill: #248da9"/>
  <polygon points="15.94 203.98 18.38 205.38 26.43 210 40.82 210 40.82 205.38 40.82 189.64 15.94 203.98" style="fill: #186a9a"/>
  <polygon points="40.82 189.64 40.82 205.38 40.82 210 55.14 210 63.15 205.38 65.69 203.92 40.82 189.64" style="fill: #8ec6e8"/>
  <polygon points="15.94 175.37 40.82 189.64 40.82 161.03 40.82 161.03 15.94 175.37" style="fill: #597bb7"/>
  <polygon points="40.82 161.03 40.82 189.64 65.69 175.31 40.82 161.03 40.82 161.03" style="fill: #29327a"/>
  <polygon points="40.82 161.03 40.82 161.03 40.82 161.03 40.82 161.03" style="fill: #597bb7"/>
  <polygon points="40.82 161.03 40.82 161.03 40.82 161.03 40.82 161.03" style="fill: #22519f"/>
  <polygon points="136.55 90.76 111.67 105.09 136.55 119.37 136.55 90.76" style="fill: #28afac"/>
  <polygon points="47.33 99.37 47.33 123.6 68.4 111.46 47.33 99.37" style="fill: #83bddb"/>
  <polygon points="354.64 190.47 354.64 167.68 334.81 179.1 354.64 190.47" style="fill: #2cb3a8"/>
  <polygon points="302.44 154.64 302.44 126.03 277.56 140.37 302.44 154.64" style="fill: #7dc7c8"/>
  <polygon points="126.17 205.38 122.12 207.72 126.09 210 145 210 145 205.38 145 194.53 126.17 205.38" style="fill: #1066af"/>
  <polygon points="166.8 190.4 166.8 170.41 149.42 180.43 166.8 190.4" style="fill: #90b423"/>
  <polygon points="159.96 157.9 159.96 129.29 135.08 143.63 159.96 157.9" style="fill: #00b3bd"/>
  <polygon points="15.92 203.96 15.92 203.89 15.92 203.89 15.92 203.96 15.92 203.96" style="fill: #146080"/>
  <polygon points="9.87 200.5 0 194.84 0 210 5.43 210 13.45 205.38 15.9 203.97 9.87 200.5" style="fill: #146080"/>
  <polygon points="9.87 178.84 15.9 175.36 9.87 171.89 9.87 178.84" style="fill: #bad9ed"/>
  <polygon points="15.92 175.28 15.92 175.35 15.92 175.35 15.92 175.28 15.92 175.28" style="fill: #bad9ed"/>
  <polygon points="105 62.42 80.12 76.75 105 91.03 105 62.42" style="fill: #597bb7"/>
  <polygon points="15.92 146.74 15.92 146.67 15.92 146.67 15.92 146.74 15.92 146.74" style="fill: #222d58"/>
  <polygon points="15.9 146.75 9.87 143.29 9.87 150.23 15.9 146.75" style="fill: #222d58"/>
  <polygon points="9.87 114.67 0 109.02 0 127.32 9.87 121.64 15.92 118.15 15.92 118.15 9.87 114.67" style="fill: #006bb1"/>
  <g>
    <polygon points="16.61 117.77 18.18 118.6 17.42 119 40.82 132.43 40.82 103.82 16.61 117.77" style="fill: #006bb1"/>
    <polygon points="16.61 117.77 15.94 118.15 17.42 119 18.18 118.6 16.61 117.77" style="fill: #006bb1"/>
  </g>
  <polygon points="9.87 85.98 9.87 93.01 15.98 89.49 9.87 85.98" style="fill: #08547a"/>
  <polygon points="275.68 182.5 275.68 153.89 250.8 168.22 275.68 182.5" style="fill: #e2adcf"/>
  <polygon points="34 16.23 34 44.84 58.88 30.5 34 16.23" style="fill: #7c4c98"/>
  <polygon points="460 142.07 435.12 156.4 460 170.68 460 142.07" style="fill: #7fbb4f"/>
  <polygon points="264.34 79.87 239.46 94.2 264.34 108.48 264.34 79.87" style="fill: #146080"/>
  <polygon points="267.81 92.23 267.81 120.84 292.69 106.51 267.81 92.23" style="fill: #cad420"/>
  <polygon points="65.7 203.92 63.16 205.38 55.15 210 65.7 210 65.7 205.38 65.7 203.92 65.7 203.92" style="fill: #dfebf4"/>
  <polygon points="68.25 205.38 65.7 203.92 65.7 203.92 65.7 205.38 65.7 210 76.3 210 68.25 205.38" style="fill: #248da9"/>
  <polygon points="65.7 175.31 40.82 189.65 65.7 203.92 65.7 203.92 65.7 175.31" style="fill: #1c80b5"/>
  <polygon points="65.7 203.92 65.7 203.92 65.7 203.92 65.7 203.92" style="fill: #1c80b5"/>
  <polygon points="90.58 189.58 65.7 175.31 65.7 203.92 65.7 203.92 90.58 189.58" style="fill: #28afac"/>
  <polygon points="65.7 203.92 65.7 203.92 65.7 203.92 65.7 203.92" style="fill: #28afac"/>
  <polygon points="65.7 175.31 65.7 146.7 40.82 161.04 65.7 175.31" style="fill: #28abc8"/>
  <polygon points="65.7 175.31 90.58 160.97 65.7 146.7 65.7 146.7 65.7 175.31" style="fill: #248da9"/>
  <polygon points="90.56 132.36 65.7 118.09 65.7 146.7 65.7 146.7 90.55 132.39 90.53 132.38 90.56 132.36" style="fill: #222d58"/>
  <polygon points="65.7 146.7 65.7 146.7 65.7 146.7 65.7 146.7" style="fill: #222d58"/>
  <polygon points="40.82 132.43 65.7 146.7 65.7 118.09 40.82 132.43" style="fill: #a7cddf"/>
  <polygon points="331.94 104.37 331.94 132.98 356.81 118.64 331.94 104.37" style="fill: #222d58"/>
  <polygon points="15.92 203.98 13.48 205.38 5.47 210 15.92 210 15.92 205.38 15.92 203.98 15.92 203.98" style="fill: #6398ad"/>
  <polygon points="18.37 205.38 15.92 203.98 15.92 203.98 15.92 205.38 15.92 210 26.42 210 18.37 205.38" style="fill: #bed5e7"/>
  <polygon points="15.92 203.98 15.92 203.96 15.9 203.97 15.92 203.98 15.92 203.98" style="fill: #22519f"/>
  <polygon points="9.87 178.86 0 184.54 0 194.76 0 194.84 9.87 200.5 15.9 203.97 15.92 203.96 15.92 203.89 15.92 175.37 9.87 178.86" style="fill: #22519f"/>
  <polygon points="15.92 203.98 15.92 203.98 15.92 203.98 15.92 203.98" style="fill: #22519f"/>
  <polygon points="15.92 203.96 15.92 203.98 15.92 203.98 40.8 189.64 15.92 175.37 15.92 203.89 15.98 203.92 15.92 203.96" style="fill: #1a77aa"/>
  <polygon points="15.98 203.92 15.92 203.89 15.92 203.96 15.98 203.92" style="fill: #1a77aa"/>
  <polygon points="15.92 203.98 15.92 203.98 15.92 203.98 15.92 203.98" style="fill: #1a77aa"/>
  <polygon points="15.92 146.76 9.87 150.25 9.87 171.81 15.92 175.28 15.92 146.76 15.92 146.76" style="fill: #0572b6"/>
  <polygon points="15.92 175.37 15.92 175.35 15.9 175.36 15.92 175.37" style="fill: #0572b6"/>
  <polygon points="9.87 171.81 9.87 171.89 15.9 175.36 15.92 175.35 15.92 175.28 9.87 171.81" style="fill: #0572b6"/>
  <polygon points="15.92 175.28 15.92 175.35 15.98 175.31 15.92 175.28" style="fill: #2a3276"/>
  <polygon points="9.87 143.2 15.92 146.67 15.92 119.29 9.87 122.5 9.87 143.2" style="fill: #3d768b"/>
  <polygon points="15.92 146.76 15.92 146.74 15.9 146.75 15.92 146.76 15.92 146.76" style="fill: #3d768b"/>
  <polygon points="9.87 143.29 15.9 146.75 15.92 146.74 15.92 146.67 9.87 143.2 9.87 143.29" style="fill: #3d768b"/>
  <polygon points="9.87 121.64 9.87 122.5 15.92 119.29 15.92 118.15 9.87 121.64" style="fill: #3d768b"/>
  <polygon points="15.92 146.76 15.92 146.76 15.92 146.76 15.92 146.76" style="fill: #3d768b"/>
  <polygon points="15.92 146.74 15.92 146.76 40.37 160.78 40.37 160.78 15.94 146.76 16.37 146.52 15.92 146.26 15.92 146.67 15.98 146.71 15.92 146.74" style="fill: #155384"/>
  <polygon points="15.98 146.71 15.92 146.67 15.92 146.74 15.98 146.71" style="fill: #155384"/>
  <polygon points="40.37 160.78 15.92 146.76 15.92 174.87 15.92 175.28 15.98 175.31 15.92 175.35 15.92 175.37 40.8 161.03 40.37 160.78" style="fill: #155384"/>
  <polygon points="15.92 116.9 15.92 89.54 9.87 93.03 9.87 113.71 15.92 116.9" style="fill: #223870"/>
  <polygon points="9.87 114.67 15.92 118.15 15.92 116.9 9.87 113.71 9.87 114.67" style="fill: #223870"/>
  <polygon points="15.92 146.76 40.8 132.42 17.41 119 15.92 119.79 15.92 146.76" style="fill: #28abc8"/>
  <polygon points="15.92 119.79 17.41 119 15.92 118.15 15.92 119.79" style="fill: #28abc8"/>
  <polygon points="124.96 57.92 124.96 86.53 149.84 72.19 124.96 57.92" style="fill: #28abc8"/>
  <polygon points="18.66 82.54 18.66 111.15 43.54 96.82 18.66 82.54" style="fill: #0771b7"/>
  <polygon points="112.83 205.38 104.82 210 115.41 210 115.41 205.38 115.41 203.9 112.83 205.38" style="fill: #7fbb4f"/>
  <polygon points="115.41 203.87 112.78 205.38 112.83 205.38 115.41 203.9 115.41 203.87" style="fill: #7fbb4f"/>
  <polygon points="122.12 207.72 118.05 205.38 115.44 203.88 115.41 203.9 115.41 205.38 115.41 210 122.09 210 126.09 210 122.12 207.72" style="fill: #30b9d0"/>
  <polygon points="115.41 203.9 115.44 203.88 115.41 203.87 115.41 203.9" style="fill: #30b9d0"/>
  <polygon points="118 201.87 118 173.26 93.12 187.59 118 201.87" style="fill: #27a568"/>
  <polygon points="123 205.31 147.88 190.97 123 176.7 123 205.31" style="fill: #1f867d"/>
  <polygon points="129 173.26 129 144.65 104.12 158.98 129 173.26" style="fill: #146080"/>
  <polygon points="392.54 179.36 367.66 193.7 388.03 205.38 392.54 205.38 392.54 179.36" style="fill: #146080"/>
  <polygon points="135 153.85 135 174.76 153.18 164.28 135 153.85" style="fill: #187145"/>
  <polygon points="115.41 146.6 115.41 118.04 90.56 132.36 90.58 132.37 90.55 132.39 90.56 132.39 90.6 132.37 90.6 132.42 90.6 132.42 90.6 132.37 115.41 146.6" style="fill: #1f867d"/>
  <polygon points="90.56 132.39 90.6 132.42 90.6 132.37 90.56 132.39" style="fill: #1f867d"/>
  <polygon points="115.41 146.6 90.6 132.37 90.6 132.42 115.41 146.65 115.41 146.6" style="fill: #1f867d"/>
  <polygon points="90.56 132.36 90.53 132.38 90.55 132.39 90.58 132.37 90.56 132.36" style="fill: #1f867d"/>
  <polygon points="121.46 114.64 121.46 143.25 146.34 128.91 121.46 114.64" style="fill: #24573c"/>
  <polygon points="217.42 205.38 209.41 210 222.51 210 222.51 205.38 222.51 202.45 217.42 205.38" style="fill: #81358a"/>
  <polygon points="234.83 111.8 234.83 140.41 259.7 126.07 234.83 111.8" style="fill: #3c2871"/>
  <polygon points="196.52 205.38 171.87 191.23 171.87 205.38 171.87 210 188.95 210 196.74 205.51 196.52 205.38" style="fill: #1a77aa"/>
  <polygon points="255.6 202.25 255.6 205.38 261.05 205.38 255.6 202.25" style="fill: #da2c87"/>
  <polygon points="238.31 205.38 230.7 201.02 230.7 205.38 230.7 210 246.36 210 238.31 205.38" style="fill: #da2c87"/>
  <polygon points="210.59 203.71 234.06 190.19 210.59 176.72 210.59 203.71" style="fill: #da2c87"/>
  <polygon points="250.53 200.33 274 186.8 250.53 173.34 250.53 200.33" style="fill: #d51c5f"/>
  <polygon points="343.53 194.51 324.65 205.38 343.53 205.38 343.53 194.51" style="fill: #e2adcf"/>
  <polygon points="398 143.16 374.53 156.69 398 170.16 398 143.16" style="fill: #d44628"/>
  <polygon points="361 153.16 361 180.16 384.47 166.63 361 153.16" style="fill: #e5286f"/>
  <polygon points="301.37 198.4 301.37 171.41 277.9 184.93 301.37 198.4" style="fill: #f39f89"/>
  <polygon points="573.49 192.5 567.53 195.93 573.49 198.86 573.49 199.35 591 209.4 591 182.41 573.49 192.5" style="fill: #f39f89"/>
  <polygon points="310.12 176.51 310.12 201.22 331.61 188.84 310.12 176.51" style="fill: #ad2c86"/>
  <polygon points="255.53 202.22 255.6 202.25 255.6 202.21 261.13 205.38 269.18 210 279.01 210 279.01 205.38 279.01 188.69 255.53 202.22" style="fill: #e8417b"/>
  <g>
    <polygon points="261.05 205.38 255.6 205.38 255.6 210 269.1 210 261.05 205.38" style="fill: #e8417b"/>
    <polygon points="255.6 202.21 255.6 202.25 261.05 205.38 261.13 205.38 255.6 202.21" style="fill: #e8417b"/>
  </g>
  <polygon points="279.01 188.69 279.01 205.38 279.01 210 288.87 210 296.89 205.38 302.48 202.16 279.01 188.69" style="fill: #ec6c23"/>
  <polygon points="204.71 186.69 204.71 169.25 189.55 177.99 204.71 186.69" style="fill: #f5a761"/>
  <polygon points="31.86 70.56 9.87 57.94 9.87 83.23 31.86 70.56" style="fill: #e22b4b"/>
  <polygon points="528.02 205.38 534.92 205.38 534.92 201.4 528.02 205.38" style="fill: #27a568"/>
  <polygon points="455.46 180.21 430.58 194.55 449.47 205.38 455.46 205.38 455.46 180.21" style="fill: #166495"/>
  <polygon points="465 158.21 465 186.82 489.88 172.48 465 158.21" style="fill: #222d58"/>
  <polygon points="480.34 194.49 461.44 205.38 480.34 205.38 480.34 194.49" style="fill: #597bb7"/>
  <polygon points="513.07 205.33 488.19 191.05 488.19 205.38 512.98 205.38 513.07 205.33" style="fill: #cad420"/>
  <polygon points="542 161.74 517.12 176.08 542 190.35 542 161.74" style="fill: #dfebf4"/>
  <polygon points="423.45 196.26 423.45 205.38 439.35 205.38 423.45 196.26" style="fill: #1d9cd8"/>
  <polygon points="408.98 171.82 408.98 200.43 433.85 186.1 408.98 171.82" style="fill: #bed5e7"/>
  <path d="M1269.63,178.5h.31C1269.92,178.31,1269.63,178.3,1269.63,178.5Z" style="fill: #cd9b23"/>
  <polygon points="1309 189.26 1277.49 207.34 1282.1 210 1309 210 1309 189.26" style="fill: #7dc7c8"/>
  <polygon points="1264.51 194.8 1233 176.64 1233 210 1238.01 210 1264.51 194.8" style="fill: #1c4487"/>
  <polygon points="1315.14 144.39 1283.63 162.47 1315.14 180.63 1315.14 144.39" style="fill: #248da9"/>
  <polygon points="1318 144.69 1318 180.92 1349.51 162.84 1318 144.69" style="fill: #28afac"/>
  <polygon points="1011.11 182.68 1011.11 204.41 1030 193.57 1011.11 182.68" style="fill: #2cb3a8"/>
  <polygon points="1125.16 171.06 1125.16 200.78 1151 185.95 1125.16 171.06" style="fill: #7dc7c8"/>
  <polygon points="1346.51 199.65 1315 181.5 1315 210 1328.48 210 1346.51 199.65" style="fill: #00b3bd"/>
  <polygon points="1331 100.58 1331 136.82 1362 119.03 1362 118.44 1331 100.58" style="fill: #597bb7"/>
  <polygon points="1069.67 204.79 1044 190 1044 210 1060.6 210 1069.67 204.79" style="fill: #e2adcf"/>
  <polygon points="1191.65 124.89 1191.65 161.13 1223.16 143.05 1191.65 124.89" style="fill: #146080"/>
  <polygon points="1190.45 177.17 1158.94 195.25 1184.54 210 1190.45 210 1190.45 177.17" style="fill: #cad420"/>
  <polygon points="1079 153.63 1057.49 165.97 1079 178.37 1079 153.63" style="fill: #222d58"/>
  <polygon points="1330.49 142.17 1362 160.33 1362 124.09 1330.49 142.17" style="fill: #28abc8"/>
  <polygon points="1273 164.48 1273 200.71 1304.51 182.63 1273 164.48" style="fill: #146080"/>
  <polygon points="1341.11 187.01 1362 199.05 1362 175.02 1341.11 187.01" style="fill: #24573c"/>
  <polygon points="1229.03 201.57 1229.03 165.33 1197.51 183.41 1229.03 201.57" style="fill: #3c2871"/>
  <polygon points="1118.73 204.5 1089 187.37 1089 210 1109.15 210 1118.73 204.5" style="fill: #f39f89"/>
  <polygon points="16.37 146.52 15.94 146.76 40.37 160.78 40.82 161.03 40.82 161.03 40.82 132.43 16.37 146.52" style="fill: #597bb7"/>
  <polygon points="65.26 146.45 40.82 132.43 40.82 160.53 40.82 161.03 40.82 161.03 65.69 146.7 65.26 146.45" style="fill: #1c4487"/>
</svg>
