<svg id="Livello_1" data-name="Livello 1" xmlns="http://www.w3.org/2000/svg" width="79.9" height="70" viewBox="0 0 79.9 70">
  <title>icon-community-dk-comments</title>
  <path d="M.1,30Q.1,17.5,11.8,8.7C19.5,2.9,29-.1,40,0S60.5,3,68.2,8.7,79.9,21.6,79.9,30,76,45.5,68.2,51.3,51,59.9,40,60a50.9,50.9,0,0,1-7.7-.6,39.4,39.4,0,0,1-7.1,6.2A24.4,24.4,0,0,1,15.4,70h-.8a2.5,2.5,0,0,1-1.6-.6,2.5,2.5,0,0,1-.6-1.6,3,3,0,0,1,.2-1,7.2,7.2,0,0,1,1-1.7A14,14,0,0,0,15,62.8l1.2-2.3a20,20,0,0,0,1-2.9,12.2,12.2,0,0,0,.3-2.6h0A35.8,35.8,0,0,1,4.7,44.2,24.9,24.9,0,0,1,0,30ZM5,30A18.9,18.9,0,0,0,9,41.4a26.9,26.9,0,0,0,10.9,8.9,4.9,4.9,0,0,1,2.7,4.6v.5a20.1,20.1,0,0,1-1.7,7.3,31.6,31.6,0,0,0,7.7-6.4,4.6,4.6,0,0,1,3.9-1.8h.6a43.1,43.1,0,0,0,7.1.5c9.7,0,17.9-2.4,24.8-7.3S75.2,37,75.2,30.1,71.8,17.3,65,12.4,49.9,5,40.2,5s-18,2.5-24.8,7.4S5.1,23.2,5.1,30.1Zm7.6,0q0-7.2,8.1-12.3a36,36,0,0,1,19.4-5.1c.8,0,1.3.4,1.3,1.2a1.2,1.2,0,0,1-1.3,1.3,32.4,32.4,0,0,0-17.5,4.6c-5.1,3-7.6,6.5-7.6,10.5a1.1,1.1,0,0,1-1.2,1.2c-.9,0-1.3-.4-1.3-1.2Z" fill="#0678be"/>
</svg>
