<svg id="Livello_1" data-name="Livello 1" xmlns="http://www.w3.org/2000/svg" width="120" height="55.3" viewBox="0 0 120 55.3">
  <title>icon-community-dk-users</title>
  <g>
    <path d="M32.5,52.8a3.1,3.1,0,0,1,1.4-3.9A47.1,47.1,0,0,1,50,42.6a35.2,35.2,0,0,1-6.6-14.2,35.1,35.1,0,0,1-.6-6.8A24.5,24.5,0,0,1,44,13.5a22.1,22.1,0,0,1,3.7-7.7A14.9,14.9,0,0,1,60,0,14.9,14.9,0,0,1,72.3,5.8,24,24,0,0,1,76,13.5a31.2,31.2,0,0,1,1.2,8.1,35.1,35.1,0,0,1-.6,6.8A35.8,35.8,0,0,1,70,42.6a47.1,47.1,0,0,1,16.1,6.3,3.5,3.5,0,0,1-2,6.4H35.7a3.1,3.1,0,0,1-2.1-.7,3.6,3.6,0,0,1-1.2-1.8Zm3.4-1H84.3a45.4,45.4,0,0,0-14.8-5.9L65.1,45A8.8,8.8,0,0,1,55,45l-4.4.9a44.5,44.5,0,0,0-14.8,5.9ZM46.5,18.5A28.1,28.1,0,0,0,47.4,30a31,31,0,0,0,5.3,10.4l.6.7c2.1,2.4,4.4,3.6,6.8,3.6s4.7-1.2,6.8-3.6l.6-.7A30.1,30.1,0,0,0,72.8,30a28.2,28.2,0,0,0,.9-11.5A22.2,22.2,0,0,0,69.5,7.8a11.3,11.3,0,0,0-9.3-4.4,11,11,0,0,0-9.3,4.4,21.2,21.2,0,0,0-4.2,10.7Z" fill="#0678be"/>
    <path d="M74,48.1a2.5,2.5,0,0,1,1.1-3.2,41.4,41.4,0,0,1,13.5-5.3,27.5,27.5,0,0,1-5.5-11.8,32.4,32.4,0,0,1-.5-5.6,21.2,21.2,0,0,1,1-6.8,19,19,0,0,1,3-6.4,13.3,13.3,0,0,1,20.6,0,19,19,0,0,1,3,6.4,21.2,21.2,0,0,1,1,6.8,32.4,32.4,0,0,1-.5,5.6,29.2,29.2,0,0,1-5.4,11.8,41.7,41.7,0,0,1,13.4,5.3,2.6,2.6,0,0,1,1.1,3.3,2.6,2.6,0,0,1-2.8,2H76.7a2.8,2.8,0,0,1-1.8-.6,2.5,2.5,0,0,1-1-1.5Zm2.8-.8h40.4a37.8,37.8,0,0,0-12.4-4.9l-3.6-.8a7.2,7.2,0,0,1-8.5,0l-3.6.8a37.8,37.8,0,0,0-12.4,4.9Zm8.9-27.8a24.1,24.1,0,0,0,.7,9.6,25.8,25.8,0,0,0,4.5,8.7l.4.6q2.7,3,5.7,3t5.7-3l.4-.6a24.2,24.2,0,0,0,5.2-18.3,18,18,0,0,0-3.5-8.9,10.1,10.1,0,0,0-15.5,0,18,18,0,0,0-3.5,8.9Z" fill="#0678be"/>
    <path d="M.2,48.1a2.5,2.5,0,0,1,1.1-3.2,41.7,41.7,0,0,1,13.4-5.3A28.6,28.6,0,0,1,9.3,27.8a32.4,32.4,0,0,1-.5-5.6,21.2,21.2,0,0,1,1-6.8,19,19,0,0,1,3-6.4A12.7,12.7,0,0,1,23.1,4.1,12.7,12.7,0,0,1,33.4,9a19,19,0,0,1,3,6.4,21.2,21.2,0,0,1,1,6.8,32.4,32.4,0,0,1-.5,5.6,28,28,0,0,1-5.5,11.8,41.4,41.4,0,0,1,13.5,5.3A2.6,2.6,0,0,1,46,48.2a2.6,2.6,0,0,1-2.8,2H2.8a2.7,2.7,0,0,1-1.7-.6,2.5,2.5,0,0,1-1-1.5ZM3,47.3H43.3A36.4,36.4,0,0,0,31,42.4l-3.6-.8A7.8,7.8,0,0,1,23.1,43a7.8,7.8,0,0,1-4.2-1.4l-3.6.8A37.8,37.8,0,0,0,2.9,47.3Zm8.9-27.8a24.2,24.2,0,0,0,5.2,18.3l.4.6q2.7,3,5.7,3t5.7-3l.4-.6a24.2,24.2,0,0,0,5.2-18.3A18,18,0,0,0,31,10.6,9.4,9.4,0,0,0,23.2,7a9.3,9.3,0,0,0-7.7,3.6A18,18,0,0,0,12,19.5Z" fill="#0678be"/>
  </g>
</svg>
