<svg id="Livello_1" data-name="Livello 1" xmlns="http://www.w3.org/2000/svg" width="39.4" height="81.3" viewBox="0 0 39.4 81.3">
  <title>icon-community-dk-commits</title>
  <path d="M32,61.9V35a10,10,0,0,0,7.4-9.6,9.9,9.9,0,0,0-19.7,0A10,10,0,0,0,27.1,35V45.2H17.8c-.8-.1-5.5-.9-5.5-4.5V19.4a10,10,0,0,0,7.4-9.6A9.9,9.9,0,1,0,7.4,19.4V40.7c0,6.6,6.5,9,10,9.4h9.7V61.9a10,10,0,0,0-7.4,9.5,9.9,9.9,0,1,0,19.7,0A10,10,0,0,0,32,61.9ZM4.1,9.8a5.8,5.8,0,1,1,5.7,5.8A5.8,5.8,0,0,1,4.1,9.8ZM23.8,25.4a5.8,5.8,0,1,1,5.8,5.8A5.8,5.8,0,0,1,23.8,25.4Zm5.8,51.8a5.8,5.8,0,1,1,5.7-5.8A5.8,5.8,0,0,1,29.6,77.2Z" fill="#0678be"/>
</svg>
