<svg id="Livello_1" data-name="Livello 1" xmlns="http://www.w3.org/2000/svg" width="28.6" height="58.6" viewBox="0 0 28.6 58.6">
  <title>icon-anim</title>
  <g>
    <path d="M2,15.7a13.7,13.7,0,1,1,27.3.1A13.7,13.7,0,0,1,2,15.7Zm3.1,0A10.6,10.6,0,1,0,15.5,5.1,10.6,10.6,0,0,0,5.1,15.7ZM12.6,19a2.2,2.2,0,0,0,.1.8.7.7,0,0,0,.8.5,1.6,1.6,0,0,0,.9-.3l6.3-3.6.4-.2a1,1,0,0,0,0-1.6l-.4-.2-6.4-3.7-.4-.2a.9.9,0,0,0-1.2.7,1.1,1.1,0,0,0-.1.5V19Z" transform="translate(-0.7 -0.7)" opacity="0.75"/>
    <path d="M.7,14.3A13.7,13.7,0,1,1,14.1,28,13.6,13.6,0,0,1,.7,14.3Zm3,0A10.6,10.6,0,1,0,14.2,3.7,10.6,10.6,0,0,0,3.7,14.3Zm7.5,3.4c0,.2.1.5.1.7s.5.6.8.5l.9-.2L19.3,15l.4-.2a.9.9,0,0,0,0-1.5l-.4-.3L13,9.4l-.5-.2c-.6-.2-1.1,0-1.2.6a1.3,1.3,0,0,0-.1.6v7.3Z" transform="translate(-0.7 -0.7)" fill="#fff"/>
  </g>
  <g>
    <path d="M2,45.7a13.7,13.7,0,1,1,27.3.1A13.7,13.7,0,0,1,2,45.7Zm3.1,0A10.6,10.6,0,1,0,15.5,35.1,10.6,10.6,0,0,0,5.1,45.7Zm12.1,3.4v1.4a1.8,1.8,0,0,0,1.9,1.8,1.8,1.8,0,0,0,1.7-1.9V40.6a1.8,1.8,0,0,0-1.9-1.5,1.8,1.8,0,0,0-1.7,1.8v8.2Zm-6.7,1.3v.4a1.9,1.9,0,0,0,2,1.5,1.9,1.9,0,0,0,1.7-1.9V40.5a2,2,0,0,0-2.1-1.4,1.8,1.8,0,0,0-1.6,1.8v9.5Z" transform="translate(-0.7 -0.7)" opacity="0.75"/>
    <path d="M.7,44.3A13.7,13.7,0,1,1,14.1,58,13.6,13.6,0,0,1,.7,44.3Zm3,0A10.6,10.6,0,1,0,14.2,33.7,10.6,10.6,0,0,0,3.7,44.3Zm12.1,3.4v1.4a1.8,1.8,0,0,0,2,1.8A1.9,1.9,0,0,0,19.5,49V39.3a1.9,1.9,0,0,0-2-1.6,1.9,1.9,0,0,0-1.7,1.9v8.1ZM9.2,49v.4a1.8,1.8,0,0,0,1.9,1.5,1.8,1.8,0,0,0,1.7-1.8v-10a1.8,1.8,0,0,0-3.6.5V49Z" transform="translate(-0.7 -0.7)" fill="#fff"/>
  </g>
</svg>
