<svg id="Livello_1" data-name="Livello 1" xmlns="http://www.w3.org/2000/svg" viewBox="0 0 190 190">
  <title>ico-personas-marketing</title>
  <g id="ico">
    <path d="M145.84,18.3a13.82,13.82,0,0,0-11-.93L15.45,54.76a14.22,14.22,0,0,0-9.4,18l28.78,91.93a14.2,14.2,0,0,0,18,9.4l119.44-37.39a14.22,14.22,0,0,0,9.4-18L152.85,26.77A13.83,13.83,0,0,0,145.84,18.3Zm26.67,103.25a5.65,5.65,0,0,1-.31,3.65,4.31,4.31,0,0,1-2.83,2.34L49.94,164.93a5.59,5.59,0,0,1-3.65-.31A4.31,4.31,0,0,1,44,161.8L15.17,69.86a5.6,5.6,0,0,1,.31-3.65,4.33,4.33,0,0,1,2.82-2.33L137.74,26.49a5.59,5.59,0,0,1,3.65.31,4.31,4.31,0,0,1,2.34,2.82ZM131.38,38.66l-101,31.63a5.63,5.63,0,0,0-2.83,2.34,4.32,4.32,0,0,0-.31,3.65l23,73.47a5.65,5.65,0,0,0,2.34,2.82,4.29,4.29,0,0,0,3.65.31l101-31.63a5.61,5.61,0,0,0,2.82-2.34,4.29,4.29,0,0,0,.31-3.65l-23-73.47A5.58,5.58,0,0,0,135,39,4.3,4.3,0,0,0,131.38,38.66Zm1.42,4.56,7.36,23.48-.7-.66-29,30.65-9-2.34L88.18,118.41,66.44,100.17,46.82,123,31.75,74.85ZM54.75,148.32l-7.59-24.25.73.63,18.77-21.83,22.07,18.52,13.75-24.8,8.62,2.25,29.39-31.09,15.31,48.94Z" style="fill: #fff;opacity: 0.2"/>
  </g>
</svg>
