<svg id="Livello_1" data-name="Livello 1" xmlns="http://www.w3.org/2000/svg" viewBox="0 0 190 190">
  <title>ico-personas-developers</title>
  <g id="ico">
    <path d="M168.47,70q-10.35-30.45-39.18-44.65T70,21.53Q39.57,31.88,25.38,60.71T21.53,120q10.35,30.45,39.18,44.65T120,168.47q30.45-10.35,44.65-39.18T168.47,70ZM61,153.33h0c-1.26-.72-2.49-1.47-3.68-2.25a66.19,66.19,0,0,1-24.22-29.55c-.37-.86-.72-1.73-1-2.6L48,113.53a9.52,9.52,0,0,0,2.44,4.66,17.66,17.66,0,0,0,6,4.29l1.79.88c1,.14,1.83,1,2.37,2.54A3.79,3.79,0,0,0,62,127.45c.82.59,1.2,1.14,1.13,1.66l1.76,8.35A53.08,53.08,0,0,0,69.74,150c-1.53,1.81-3,3.67-4.48,5.63-1.38-.67-2.7-1.4-4-2.14ZM147.44,120c.37,1.17.65,2.23.88,3.18a78.94,78.94,0,0,0-12.68-1.77A102.78,102.78,0,0,0,132.78,91l.16-.08a17.83,17.83,0,0,1,3.94-1.55,3.38,3.38,0,0,1,2.9.31c.38.37.95.23,1.73-.41s1.24-.73,1.39-.29a9.57,9.57,0,0,1,1.5,5.45,21.36,21.36,0,0,0,.5,4.68,18,18,0,0,0,1.82,3.66,9.77,9.77,0,0,1,1.48,3.78,9.18,9.18,0,0,1-.73,4.36Q145.72,114.47,147.44,120Zm-33.62,39.75a80.91,80.91,0,0,1-27.6-18.52,98.43,98.43,0,0,1,18.46-9.83l9.59,28.21Zm-37.3.23c-2.14-.63-4.26-1.36-6.36-2.21.83-1.14,1.69-2.24,2.58-3.32a23.9,23.9,0,0,0,8.08,6.59C79.23,160.69,77.8,160.34,76.52,160ZM42.57,83a6.85,6.85,0,0,0-3-.09c-1.56.17-2.53.07-2.9-.3q-2.14-3-.13-6.86a12.58,12.58,0,0,1,3.67-4.43A74.71,74.71,0,0,0,48.75,73c.22.21.44.42.65.64,1,1,1.64,1.36,2,1,.25-.19.35-.63.3-1.3.77.06,1.55.13,2.33.17a98.47,98.47,0,0,0,1.34,18,3.86,3.86,0,0,0-2.67,2,3.71,3.71,0,0,1-4.22,1.83,5.21,5.21,0,0,1-3.93-2.75,21.68,21.68,0,0,0-1.08-2.06c-.64-1.14-1.13-2-1.47-2.66a2.76,2.76,0,0,1-.41-1.72C42.69,84.29,43,83.24,42.57,83Zm67.49-53.64-.65.22c-1.11.39-1.4,1.36-.86,2.91,1,2.89,2.08,4.26,3.27,4.09a6.5,6.5,0,0,1,3,.48,6.37,6.37,0,0,0,3,.47c.75,0,1.46.62,2.14,1.87v0c-1.11,1.4-2.26,2.76-3.46,4.06a14.4,14.4,0,0,0-2.68-3.47c-2.25-2.21-4.34-3.22-6.27-3.06-1,.09-1.11.76-.43,2a1,1,0,0,1,.56.56,3.79,3.79,0,0,0-1.2,1.9c.46,1.34,1.28,1.56,2.46.65l1-.35.67.89a6.47,6.47,0,0,0,1,1.89,3.18,3.18,0,0,0,2.69,1.25q-1.74,1.73-3.6,3.33a88.53,88.53,0,0,0-22-18A13.89,13.89,0,0,0,89,28,64.34,64.34,0,0,1,110.06,29.39Zm5.39,24.25c2.69,2.06,5,2.52,6.82,1.39,2.58-1.88,3.83-2.94,3.76-3.16L124.32,48q.87-1.78,3.66-1.26,2,.42,7.12,3.33c3.4,1.94,6.18,2.78,8.33,2.54a5,5,0,0,1,2.9-.26c1.87,1.1,2.4,1.92,1.59,2.44a8.68,8.68,0,0,0-2.62.53,19.67,19.67,0,0,1-2.73.75,4,4,0,0,1-2.56-.42c-4.18-1.29-7-1.68-8.6-1.14a27.33,27.33,0,0,1-4.34.93,13.54,13.54,0,0,0-4.56,1.39c-.59.45-1.35,1-2.27,1.53-.59.36-1.1.69-1.55,1Q116.46,56,114,52.89l-.06-.15.42-.37A5.88,5.88,0,0,0,115.45,53.64ZM98.2,96.45l20.7-7A30.58,30.58,0,0,0,128,92.23a100.19,100.19,0,0,1,2.71,29.17,96,96,0,0,0-23,3.58l.1-.21Zm17.69-31.77a6.69,6.69,0,0,0-3.31,3.94,13.41,13.41,0,0,0,.4,6,29,29,0,0,1,.94,4.89,53.08,53.08,0,0,0,1.22,5.92L96.45,91.8l0-.15L88.36,68A89.7,89.7,0,0,0,109.89,55.8,95.83,95.83,0,0,1,116,64.55.8.8,0,0,1,115.89,64.68ZM80.31,42.06a1.35,1.35,0,0,0,1.79-.25,8.33,8.33,0,0,0,1.09-1.68,16.23,16.23,0,0,0,.93-2.74A15,15,0,0,1,85,34.65h0a82.75,82.75,0,0,1,21.74,17.47,85.87,85.87,0,0,1-20,11.36l-7.5-22A7.55,7.55,0,0,0,80.31,42.06ZM91.65,93.6,78.56,98.05a19.27,19.27,0,0,0-3.3-3q-2.37-1.15-14.61-3.25A98.19,98.19,0,0,1,59.1,73.41,90,90,0,0,0,83.62,70ZM58.15,45.4c-.22-1.28.67-2.93,2.64-5q-1.3,3.14-2.36,6.37A7.17,7.17,0,0,1,58.15,45.4ZM53.31,63.85c.25-.26.8-.76,1.63-1.5-.26,1.95-.49,3.92-.63,5.93-1.22-.08-2.45-.2-3.68-.34A6.37,6.37,0,0,1,53.31,63.85Zm41.11,40.3a12,12,0,0,0-5.87-1.33,22.55,22.55,0,0,1-4.41-.35,3.56,3.56,0,0,1-1.21-.49L93.45,98.4l9.63,28.33A95.37,95.37,0,0,0,85,136.26a24.52,24.52,0,0,1,1.1-3.14,6.85,6.85,0,0,0,.43-1.45,16.3,16.3,0,0,1,.59-2.07c.26-.71.49-1.1.72-1.18q4.2-2.94,4.53-4.17a27.12,27.12,0,0,0,.94-5.92q.51-5,1.06-5.59A11.73,11.73,0,0,0,96,108.26,4,4,0,0,0,94.42,104.15Zm15,25.68A85.82,85.82,0,0,1,130,126.36,80.93,80.93,0,0,1,119.37,158l-.38.14Zm17.35,24.68,0-.15A87.65,87.65,0,0,0,135,126.54a71.56,71.56,0,0,1,13.87,1.83c0,.73,0,2.06.07,4a17.48,17.48,0,0,1-.09,3.12A66.65,66.65,0,0,1,126.73,154.51ZM82.12,65.07a84.12,84.12,0,0,1-22.75,3.17l0-.15a87.64,87.64,0,0,1,1.35-10.15q8.14-5.4,8.58-6.3c.6-.44,1-.65,1.28-.62s.73.12,1.4.26a2.9,2.9,0,0,0,1.34.1A1.72,1.72,0,0,0,75,49.86a7.19,7.19,0,0,0,.09-2.46A15.13,15.13,0,0,0,74.43,45c-.76-2.22-1.86-3.58-3.27-4.09q-3.64-1.11-6.31,2.6,1-2.48,2.11-4.86a5.1,5.1,0,0,1,1.39.06,6.17,6.17,0,0,0,3.12-.15,8.31,8.31,0,0,0,1.25-1.15Zm-53,15c.64.55,1.21,1.88,1.7,4s1.69,3.46,3.55,3.81a18.75,18.75,0,0,1,2,.43,1.58,1.58,0,0,1,2,1.54c0,.74.51,1.32,1.53,1.71a2.94,2.94,0,0,1,1.85,1.6c.37.38,1.76,1.51,4.16,3.42s3.35,4,2.85,6.11a31.19,31.19,0,0,0-1.11,5.85l-17.22,5.85a66.57,66.57,0,0,1-1.95-31.59C28.69,81.91,28.89,81,29.12,80.1Zm57.29,82a8.53,8.53,0,0,1-4.73-3.92A14.77,14.77,0,0,1,79.89,147c.86-.78,1.71-1.55,2.61-2.29a87.48,87.48,0,0,0,23.25,16.87,64.41,64.41,0,0,1-11.76.91l-1.38.09Q89.49,162.46,86.41,162.07Z" style="fill: #fff;opacity: 0.2"/>
  </g>
</svg>
