<svg id="Livello_1" data-name="Livello 1" xmlns="http://www.w3.org/2000/svg" viewBox="0 0 190 190">
  <title>ico-personas-agencies</title>
  <g id="ico">
    <path d="M46.68,94.06A44.11,44.11,0,0,1,49,58.87a45.08,45.08,0,0,1,26.48-23.3,43.73,43.73,0,0,1,35.19,2.33A44.73,44.73,0,0,1,134,64.37,40.86,40.86,0,0,1,135.52,81q-.84,9.63-2.93,21a108.54,108.54,0,0,0-2.14,17,105.57,105.57,0,0,0,.16,13.39q.51,7.75.45,11.32a44.06,44.06,0,0,1-1,8,11.68,11.68,0,0,1-3.64,6.76,24.74,24.74,0,0,1-7.52,4.11,18.43,18.43,0,0,1-8.47,1.33,12.91,12.91,0,0,1-6.89-3.18,46,46,0,0,1-5.63-5.73q-2.43-3-6.66-9.2a133.87,133.87,0,0,0-8-10.72,90.15,90.15,0,0,0-12.12-12.3,187.1,187.1,0,0,1-15-14.7q-6.59-7.26-8.9-14.11Zm7.87-2.68q2.76,8.13,19.59,23.49,7.45,6.52,11,10.4l37.18-12.64q.51-5.13,2.41-15Q128.7,75.09,126,67.09a36.27,36.27,0,0,0-19-21.71A36.33,36.33,0,0,0,78.2,43.56a36.36,36.36,0,0,0-21.71,19,36.33,36.33,0,0,0-1.82,28.79Zm8.57-5.73a25.15,25.15,0,0,1,15.75-32,2.14,2.14,0,1,1,1.38,4.06A21,21,0,0,0,67.18,84.27a2.14,2.14,0,1,1-4.06,1.38ZM91,132.06q2.94,3.67,5.17,6.88l25.86-12.62a24.63,24.63,0,0,1-.16-4.61L91.2,132.15Zm7.56,10.17q2.77,4,4.91,7L122.18,140c0-1.52,0-3.26-.07-5.21,0-.56,0-1.31-.06-2.25a10.14,10.14,0,0,0-.13-1.65Zm7.56,10.17q2.59,2.65,4.43,3a10.44,10.44,0,0,0,5.12-.75q3.67-1.24,5-3.12c.89-1.25,1.39-3.54,1.48-6.88Z" style="fill: #fff;opacity: 0.2"/>
  </g>
  <path d="M44.24,102.1l-19.85,6.84a4,4,0,1,1-2.61-7.56l19.86-6.84a4,4,0,0,1,2.6,7.56ZM168.7,55a4,4,0,0,0-5.09-2.48l-19.85,6.84a4,4,0,1,0,2.6,7.56l19.86-6.84A4,4,0,0,0,168.7,55Zm-104,94.88L73.92,131a4,4,0,0,0-7.19-3.51l-9.2,18.88a4,4,0,0,0,7.19,3.5ZM121.27,34l9.2-18.88a4,4,0,1,0-7.19-3.5l-9.2,18.87A4,4,0,0,0,119,36,4,4,0,0,0,121.27,34ZM80.2,28.38,73.36,8.52a4,4,0,1,0-7.56,2.61L72.64,31a4,4,0,0,0,7.56-2.6Zm84.81,87a4,4,0,0,0-1.85-5.35l-18.87-9.2a4,4,0,1,0-3.51,7.19l18.88,9.2a4,4,0,0,0,3.05.19A4,4,0,0,0,165,115.37ZM49.06,58.82a4,4,0,0,0-1.84-5.35l-18.88-9.2a4,4,0,1,0-3.5,7.19l18.87,9.2a4,4,0,0,0,5.35-1.84Z" style="fill: #fff;opacity: 0.2"/>
</svg>
