<svg id="Livello_1" data-name="Livello 1" xmlns="http://www.w3.org/2000/svg" viewBox="0 0 120 120">
  <title>reseller</title>
  <path d="M91.19,71.33a3.66,3.66,0,0,1-3.83,2.76h-55A3.83,3.83,0,0,1,30,73.27a3.65,3.65,0,0,1-1.38-2h.13a3.56,3.56,0,0,1,1.57-4.39A53.61,53.61,0,0,1,48.6,59.64a39.73,39.73,0,0,1-7.48-16.08,46.56,46.56,0,0,1-.69-7.66,32.66,32.66,0,0,1,1.38-9.3A26.27,26.27,0,0,1,46,17.93a17,17,0,0,1,14-6.59,17,17,0,0,1,14,6.59,26.06,26.06,0,0,1,4.14,8.67,32.34,32.34,0,0,1,1.39,9.3,47.62,47.62,0,0,1-.7,7.66,40.09,40.09,0,0,1-7.47,16.08,53.7,53.7,0,0,1,18.28,7.23A3.64,3.64,0,0,1,91.19,71.33Zm-68.8,21.9A3.69,3.69,0,0,0,20,99.75a3.61,3.61,0,0,0,2.37.87,3.68,3.68,0,0,0,2.83-1.32,3.65,3.65,0,0,0,.85-2.7,3.68,3.68,0,0,0-3.68-3.37Zm0,0ZM60,98.85a3.7,3.7,0,1,0,3.7,3.69A3.7,3.7,0,0,0,60,98.85Zm40.44-4.3a3.69,3.69,0,1,0-2.83,6.07,3.61,3.61,0,0,0,2.37-.87A3.68,3.68,0,0,0,100.44,94.55Z" style="fill: #fff"/>
  <path d="M28.62,71.26a3.65,3.65,0,0,0,1.38,2,3.83,3.83,0,0,0,2.39.82h55a3.94,3.94,0,0,0,2.26-7.22,53.7,53.7,0,0,0-18.28-7.23,40.09,40.09,0,0,0,7.47-16.08,47.62,47.62,0,0,0,.7-7.66,32.34,32.34,0,0,0-1.39-9.3A26.06,26.06,0,0,0,74,17.93a17,17,0,0,0-14-6.59,17,17,0,0,0-14,6.59,26.27,26.27,0,0,0-4.15,8.67,32.66,32.66,0,0,0-1.38,9.3,46.56,46.56,0,0,0,.69,7.66A39.73,39.73,0,0,0,48.6,59.64a53.61,53.61,0,0,0-18.28,7.23,3.56,3.56,0,0,0-1.57,4.39ZM45.71,45.38a31.52,31.52,0,0,1-1-13.06h.13A24.32,24.32,0,0,1,49.6,20.19a12.66,12.66,0,0,1,10.56-5,12.64,12.64,0,0,1,10.55,5,24.23,24.23,0,0,1,4.78,12.13,31.63,31.63,0,0,1-1,13.06,33,33,0,0,1-6,11.75l-.63.88c-2.39,2.68-5,4-7.73,4s-5.33-1.34-7.72-4l-.63-.88A33.81,33.81,0,0,1,45.71,45.38Zm3.64,18,4.9-1a10.09,10.09,0,0,0,11.56,0l4.9,1a50,50,0,0,1,16.84,6.72h-55A49.15,49.15,0,0,1,49.35,63.41ZM60,78.52a1.85,1.85,0,0,1,1.85,1.85v9.24a1.85,1.85,0,1,1-3.7,0V80.37A1.85,1.85,0,0,1,60,78.52Zm0,16.63a7.39,7.39,0,1,0,7.39,7.39A7.39,7.39,0,0,0,60,95.15Zm0,11.09a3.7,3.7,0,1,1,3.7-3.7A3.7,3.7,0,0,1,60,106.24ZM90.48,88.43a1.83,1.83,0,0,1-2.6-.23l-5.94-7.07a1.85,1.85,0,1,1,2.83-2.38l5.94,7.08A1.83,1.83,0,0,1,90.48,88.43Zm12.79,3.74a7.39,7.39,0,1,0-.91,10.41A7.38,7.38,0,0,0,103.27,92.17ZM100,99.75a3.61,3.61,0,0,1-2.37.87,3.7,3.7,0,1,1,2.37-.87ZM37.83,78.52a1.86,1.86,0,0,1,.23,2.61L32.12,88.2a1.85,1.85,0,0,1-2.83-2.37l5.94-7.08A1.85,1.85,0,0,1,37.83,78.52ZM27.14,91.26a7.39,7.39,0,1,0,.91,10.41A7.36,7.36,0,0,0,27.14,91.26Zm-1.92,8a3.68,3.68,0,0,1-2.83,1.32A3.61,3.61,0,0,1,20,99.75a3.69,3.69,0,1,1,5.2-.45Z" style="fill: #0678be"/>
</svg>
