<svg id="Livello_1" data-name="Livello 1" xmlns="http://www.w3.org/2000/svg" viewBox="0 0 120 120">
  <title>vps</title>
  <rect x="10" y="20.83" width="100" height="78.33" rx="2" ry="2" style="fill: #fff"/>
  <path d="M109.33,19.83H10.67A1.67,1.67,0,0,0,9,21.5v77a1.67,1.67,0,0,0,1.67,1.67h98.66A1.67,1.67,0,0,0,111,98.5v-77A1.67,1.67,0,0,0,109.33,19.83Zm-1.83,3.5v8.34h-95V23.33Zm-95,73.34V34.17h95v62.5ZM15,27.5a1.25,1.25,0,0,1,1.25-1.25H27.92a1.25,1.25,0,0,1,0,2.5H16.25A1.25,1.25,0,0,1,15,27.5ZM103.33,30a2.5,2.5,0,1,0-2.5-2.5A2.5,2.5,0,0,0,103.33,30Zm0-4.17a1.67,1.67,0,1,1-1.66,1.67A1.67,1.67,0,0,1,103.33,25.83ZM95.83,30a2.5,2.5,0,1,0-2.5-2.5A2.5,2.5,0,0,0,95.83,30Zm0-4.17a1.67,1.67,0,1,1-1.66,1.67A1.67,1.67,0,0,1,95.83,25.83ZM88.33,30a2.5,2.5,0,1,0-2.5-2.5A2.5,2.5,0,0,0,88.33,30Zm0-4.17a1.67,1.67,0,1,1-1.66,1.67A1.67,1.67,0,0,1,88.33,25.83ZM33.33,55h68.34V41.67H33.33Zm2.5-10.83H99.17V52.5H35.83Zm30,4.16a1.25,1.25,0,0,1-1.25,1.25H52.92a1.25,1.25,0,0,1,0-2.5H64.58A1.25,1.25,0,0,1,65.83,48.33Zm28.34,0a1.25,1.25,0,0,1-1.25,1.25H69.58a1.25,1.25,0,0,1,0-2.5H92.92A1.25,1.25,0,0,1,94.17,48.33Zm-50.84,0a2.5,2.5,0,1,1-2.5-2.5A2.5,2.5,0,0,1,43.33,48.33Zm-10,23.34h68.34V58.33H33.33Zm2.5-10.84H99.17v8.34H35.83Zm30,4.17a1.25,1.25,0,0,1-1.25,1.25H52.92a1.25,1.25,0,0,1,0-2.5H64.58A1.25,1.25,0,0,1,65.83,65Zm28.34,0a1.25,1.25,0,0,1-1.25,1.25H69.58a1.25,1.25,0,1,1,0-2.5H92.92A1.25,1.25,0,0,1,94.17,65ZM43.33,65a2.5,2.5,0,1,1-2.5-2.5A2.5,2.5,0,0,1,43.33,65Zm-10,23.33h68.34V75H33.33Zm2.5-10.83H99.17v8.33H35.83Zm30,4.17a1.25,1.25,0,0,1-1.25,1.25H52.92a1.25,1.25,0,0,1,0-2.5H64.58A1.25,1.25,0,0,1,65.83,81.67Zm28.34,0a1.25,1.25,0,0,1-1.25,1.25H69.58a1.25,1.25,0,0,1,0-2.5H92.92A1.25,1.25,0,0,1,94.17,81.67Zm-50.84,0a2.5,2.5,0,1,1-2.5-2.5A2.5,2.5,0,0,1,43.33,81.67ZM29.17,48.33a1.25,1.25,0,0,1-1.25,1.25H18.75a1.25,1.25,0,0,1,0-2.5h9.17A1.25,1.25,0,0,1,29.17,48.33Zm0,16.67a1.25,1.25,0,0,1-1.25,1.25H18.75a1.25,1.25,0,0,1,0-2.5h9.17A1.25,1.25,0,0,1,29.17,65Zm0,16.67a1.25,1.25,0,0,1-1.25,1.25H18.75a1.25,1.25,0,0,1,0-2.5h9.17A1.25,1.25,0,0,1,29.17,81.67Z" style="fill: #0678be"/>
</svg>
