<svg id="Livello_1" data-name="Livello 1" xmlns="http://www.w3.org/2000/svg" viewBox="0 0 120 120">
  <title>dedicated</title>
  <path d="M105.27,14.13v91.74a1.74,1.74,0,0,1-1.73,1.73H63.73A1.73,1.73,0,0,1,62,105.87V14.13a1.73,1.73,0,0,1,1.73-1.73h39.81A1.74,1.74,0,0,1,105.27,14.13ZM56.54,12.4H16.73A1.73,1.73,0,0,0,15,14.13v91.74a1.73,1.73,0,0,0,1.73,1.73H56.54a1.74,1.74,0,0,0,1.73-1.73V14.13A1.74,1.74,0,0,0,56.54,12.4Z" style="fill: #fff"/>
  <path d="M56.54,12.4H16.73A1.73,1.73,0,0,0,15,14.13v91.74a1.73,1.73,0,0,0,1.73,1.73H56.54a1.74,1.74,0,0,0,1.73-1.73V14.13A1.74,1.74,0,0,0,56.54,12.4ZM55.67,105H17.6V15H55.67ZM51.35,25.38H21.92V23.65H51.35Zm0,4.33H21.92V28H51.35Zm0,4.33H21.92V32.31H51.35Zm0,8.65H21.92V41H51.35Zm0,4.33H21.92V45.29H51.35Zm0,4.33H21.92V49.62H51.35ZM21.92,79.9a1.74,1.74,0,0,1,1.73-1.73h26a1.73,1.73,0,1,1,0,3.46h-26A1.73,1.73,0,0,1,21.92,79.9ZM39.23,93.75a2.6,2.6,0,1,1-2.6-2.6A2.6,2.6,0,0,1,39.23,93.75Zm-2.6-6.92a6.92,6.92,0,1,0,6.93,6.92A6.92,6.92,0,0,0,36.63,86.83Zm0,12.11a5.19,5.19,0,1,1,5.2-5.19A5.2,5.2,0,0,1,36.63,98.94ZM103.27,12.4H63.46a1.74,1.74,0,0,0-1.73,1.73v91.74a1.74,1.74,0,0,0,1.73,1.73h39.81a1.73,1.73,0,0,0,1.73-1.73V14.13A1.73,1.73,0,0,0,103.27,12.4ZM102.4,105H64.33V15H102.4ZM98.08,25.38H68.65V23.65H98.08Zm0,4.33H68.65V28H98.08Zm0,4.33H68.65V32.31H98.08Zm0,8.65H68.65V41H98.08Zm0,4.33H68.65V45.29H98.08Zm0,4.33H68.65V49.62H98.08ZM68.65,79.9a1.74,1.74,0,0,1,1.73-1.73h26a1.73,1.73,0,0,1,0,3.46h-26A1.73,1.73,0,0,1,68.65,79.9ZM86,93.75a2.6,2.6,0,1,1-2.59-2.6A2.6,2.6,0,0,1,86,93.75Zm-2.59-6.92a6.92,6.92,0,1,0,6.92,6.92A6.92,6.92,0,0,0,83.37,86.83Zm0,12.11a5.19,5.19,0,1,1,5.19-5.19A5.2,5.2,0,0,1,83.37,98.94Z" style="fill: #0678be"/>
</svg>
