<svg id="Livello_1" data-name="Livello 1" xmlns="http://www.w3.org/2000/svg" viewBox="0 0 120 120">
  <title>managed-enterprise</title>
  <path d="M95,15H49a2,2,0,0,0-2,2V60H21a2,2,0,0,0-2,2v40a2,2,0,0,0,2,2H37V95h6v9H69V92h6v12H95a2,2,0,0,0,2-2V17A2,2,0,0,0,95,15Z" style="fill: #fff"/>
  <path d="M46,76H42V73h4Zm0,2H42v3h4Zm0,5H42v3h4Zm7,0H49v3h4ZM46,68H42v3h4Zm-7,0H35v3h4ZM53,78H49v3h4ZM32,73H28v3h4Zm0-5H28v3h4Zm7,5H35v3h4Zm-7,5H28v3h4Zm0,5H28v3h4Zm7,0H35v3h4Zm0-5H35v3h4Zm14-5H49v3h4Zm0-5H49v3h4ZM67,33H63v3h4Zm0-5H63v3h4Zm0,15H63v3h4Zm0-5H63v3h4Zm7-10H70v3h4ZM67,53H63v3h4Zm0-5H63v3h4Zm7-15H70v3h4ZM60,33H56v3h4Zm0-5H56v3h4ZM97,17v85a2,2,0,0,1-2,2H75V92H69v12H43V95H37v9H21a2,2,0,0,1-2-2V62a2,2,0,0,1,2-2H47V17a2,2,0,0,1,2-2H95A2,2,0,0,1,97,17ZM58,63H22v38H34V94a2,2,0,0,1,2-2h8a2,2,0,0,1,2,2v7H58ZM94,18H50V60h9a2,2,0,0,1,2,2v39h5V91a2,2,0,0,1,2-2h8a2,2,0,0,1,2,2v10H94ZM60,38H56v3h4Zm0,15H56v3h4Zm0-5H56v3h4Zm0-5H56v3h4Zm14-5H70v3h4Zm14,0H84v3h4ZM81,53H77v3h4Zm7-20H84v3h4Zm0-5H84v3h4Zm0,25H84v3h4Zm0-5H84v3h4Zm0-5H84v3h4ZM81,33H77v3h4ZM74,43H70v3h4Zm0,10H70v3h4Zm7-5H77v3h4Zm-7,0H70v3h4Zm7-5H77v3h4Zm0-15H77v3h4Zm0,10H77v3h4Z" style="fill: #0678be"/>
</svg>
