<svg id="Livello_1" data-name="Livello 1" xmlns="http://www.w3.org/2000/svg" viewBox="0 0 120 120">
  <title>shared</title>
  <path d="M96,29.37a5.87,5.87,0,0,0-1.76-4.28A5.8,5.8,0,0,0,90,23.33H30a5.8,5.8,0,0,0-4.27,1.76A5.87,5.87,0,0,0,24,29.37V45.93a3.85,3.85,0,0,0,1.52,3.19,5.84,5.84,0,0,0-1.52,4V69.7a3.87,3.87,0,0,0,1.52,3.2,5.8,5.8,0,0,0-1.52,4V93.47c0,1.68.59,2.26,1.76,3.44A5.8,5.8,0,0,0,30,98.67H90a5.8,5.8,0,0,0,4.27-1.76C95.41,95.73,96,95.15,96,93.47V76.92a5.8,5.8,0,0,0-1.52-4A3.87,3.87,0,0,0,96,69.7V53.15a5.84,5.84,0,0,0-1.52-4A3.85,3.85,0,0,0,96,45.93Z" style="fill: #fff"/>
  <path d="M96,29.37a5.87,5.87,0,0,0-1.76-4.28A5.8,5.8,0,0,0,90,23.33H30a5.8,5.8,0,0,0-4.27,1.76A5.87,5.87,0,0,0,24,29.37V45.93a3.85,3.85,0,0,0,1.52,3.19,5.84,5.84,0,0,0-1.52,4V69.7a3.87,3.87,0,0,0,1.52,3.2,5.8,5.8,0,0,0-1.52,4V93.47c0,1.68.59,2.26,1.76,3.44A5.8,5.8,0,0,0,30,98.67H90a5.8,5.8,0,0,0,4.27-1.76C95.41,95.73,96,95.15,96,93.47V76.92a5.8,5.8,0,0,0-1.52-4A3.87,3.87,0,0,0,96,69.7V53.15a5.84,5.84,0,0,0-1.52-4A3.85,3.85,0,0,0,96,45.93Zm-68,0a2,2,0,0,1,.6-1.42A1.92,1.92,0,0,1,30,27.34H90a1.87,1.87,0,0,1,1.4.61A2,2,0,0,1,92,29.37V45.93c0,.55-.2.18-.58.58a1.85,1.85,0,0,1-1.29.59H29.92a1.92,1.92,0,0,1-1.31-.59c-.4-.4-.6,0-.6-.58ZM91.37,51.72A2,2,0,0,1,92,53.15V69.7c0,.55-.2.18-.58.58a1.81,1.81,0,0,1-1.29.59H29.92a1.87,1.87,0,0,1-1.31-.59c-.4-.4-.6,0-.6-.58V53.15a2,2,0,0,1,.6-1.43,1.92,1.92,0,0,1,1.31-.59H90.08A1.85,1.85,0,0,1,91.37,51.72ZM92,93.47c0,.55-.2.18-.58.58a1.87,1.87,0,0,1-1.4.61H30a1.92,1.92,0,0,1-1.42-.61c-.4-.4-.6,0-.6-.58V76.92a2,2,0,0,1,.6-1.43,1.92,1.92,0,0,1,1.31-.59H90.08a1.85,1.85,0,0,1,1.29.59A2,2,0,0,1,92,76.92ZM31.34,38.2a1,1,0,0,1-.29-.73c0-.65.34-1,1-1H65.92c.68,0,1,.32,1,1a1,1,0,0,1-1,1H32.06A1,1,0,0,1,31.34,38.2Zm35.59,23a1,1,0,0,1-1,1H32.06a1,1,0,0,1-1-1,.88.88,0,0,1,1-1H65.92C66.6,60.27,66.93,60.6,66.93,61.24Zm0,23.77a1,1,0,0,1-.29.73,1,1,0,0,1-.72.29H32.06a1,1,0,0,1-.72-.29,1,1,0,0,1-.29-.73c0-.64.34-1,1-1H65.92C66.6,84.05,66.93,84.37,66.93,85ZM81.59,43a5.94,5.94,0,1,0-5.92-5.94A5.93,5.93,0,0,0,81.59,43Zm0-9.37a3.43,3.43,0,1,1-3.41,3.43A3.43,3.43,0,0,1,81.59,33.67Zm0,22.11a5.94,5.94,0,1,0,5.93,5.94A5.93,5.93,0,0,0,81.59,55.78Zm0,9.37A3.43,3.43,0,1,1,85,61.72,3.42,3.42,0,0,1,81.59,65.15Zm0,14.4a5.95,5.95,0,1,0,5.93,5.94A5.93,5.93,0,0,0,81.59,79.55Zm0,9.38A3.44,3.44,0,1,1,85,85.49,3.43,3.43,0,0,1,81.59,88.93Z" style="fill: #0678be"/>
</svg>
