<svg id="Livello_1" data-name="Livello 1" xmlns="http://www.w3.org/2000/svg" viewBox="0 0 120 120">
  <title>cloud</title>
  <path d="M96.57,42.48a18.91,18.91,0,0,0-11.15-6.56A23.05,23.05,0,0,0,78,21.08a22,22,0,0,0-15.42-6A22.83,22.83,0,0,0,41.71,28.54a10.66,10.66,0,0,0-3.52-.66A11.49,11.49,0,0,0,26.63,39.45,9.75,9.75,0,0,0,27.28,43,16.22,16.22,0,0,0,21.21,49,16.5,16.5,0,0,0,19,57.32a16.11,16.11,0,0,0,4.92,11.73A16.11,16.11,0,0,0,35.73,74h3.68v9.54q0,4.51,6.16,7A37.19,37.19,0,0,0,60,93.05a39.6,39.6,0,0,0,14.43-2.49q6.15-2.44,6.16-7V74h1.22A19.05,19.05,0,0,0,101,54.78,18.5,18.5,0,0,0,96.57,42.48Z" style="fill: #fff"/>
  <path d="M62,93a37.92,37.92,0,0,0,12.43-2.44q6.15-2.44,6.16-7V74h1.22A19.05,19.05,0,0,0,101,54.78a18.5,18.5,0,0,0-4.43-12.3,18.91,18.91,0,0,0-11.15-6.56A23.05,23.05,0,0,0,78,21.08a22,22,0,0,0-15.42-6A22.83,22.83,0,0,0,41.71,28.54a10.66,10.66,0,0,0-3.52-.66A11.49,11.49,0,0,0,26.63,39.45,9.75,9.75,0,0,0,27.28,43,16.22,16.22,0,0,0,21.21,49,16.5,16.5,0,0,0,19,57.32a16.11,16.11,0,0,0,4.92,11.73A16.11,16.11,0,0,0,35.73,74h3.68v9.54q0,4.51,6.16,7A35.73,35.73,0,0,0,58,93v3.27h0A7.08,7.08,0,0,0,53.29,101H33a2,2,0,0,0,0,4H53.29a7,7,0,0,0,13.42,0H87a2,2,0,0,0,0-4H66.71A7.08,7.08,0,0,0,62,96.29h0ZM77.58,74.72q0,2.77-5.12,4.7A35.6,35.6,0,0,1,60,81.35a35.54,35.54,0,0,1-12.5-1.93q-5.12-1.92-5.12-4.7v-5.5c1.47,1.54,3.82,2.71,7.05,3.53A43.32,43.32,0,0,0,60,74a43.4,43.4,0,0,0,10.58-1.22c3.22-.82,5.57-2,7-3.53Zm0-8.79q0,2.77-5.12,4.7A35.6,35.6,0,0,1,60,72.56a35.54,35.54,0,0,1-12.5-1.93q-5.12-1.92-5.12-4.7v-5a19.4,19.4,0,0,0,7.52,3.2,47.81,47.81,0,0,0,20.21,0,19.47,19.47,0,0,0,7.52-3.2Zm-5.12-5.59A35.83,35.83,0,0,1,60,62.27a35.77,35.77,0,0,1-12.5-1.93c-3.41-1.29-5.12-2.85-5.12-4.7s1.71-3.42,5.12-4.7A35.54,35.54,0,0,1,60,49a35.6,35.6,0,0,1,12.51,1.93q5.12,1.92,5.12,4.7C77.58,57.49,75.87,59.05,72.46,60.34Zm-33-4.75V70H35.73a12.15,12.15,0,0,1-9-3.75A12.13,12.13,0,0,1,23,57.34,12.5,12.5,0,0,1,24.68,51a12.19,12.19,0,0,1,4.59-4.59l3-1.7L31,41.54a5.61,5.61,0,0,1-.39-2.09,7.48,7.48,0,0,1,7.56-7.57,6.85,6.85,0,0,1,2.21.44l3.47,1.2,1.5-3.35A18.79,18.79,0,0,1,62.54,19.09,17.89,17.89,0,0,1,75.24,24a19,19,0,0,1,6.2,12.34l.33,2.92,2.88.57a14.9,14.9,0,0,1,8.87,5.21A14.5,14.5,0,0,1,97,54.78,15,15,0,0,1,81.81,70H80.59V55.59q0-4.52-6.16-7.05A37.23,37.23,0,0,0,60,46.05a39.56,39.56,0,0,0-14.43,2.49Q39.42,51,39.41,55.59Zm2.92,27.92V78c1.47,1.54,3.82,2.71,7.05,3.53A43.32,43.32,0,0,0,60,82.76a43.4,43.4,0,0,0,10.58-1.22c3.22-.82,5.57-2,7-3.53v5.5c0,1.85-1.71,3.41-5.12,4.7A35.83,35.83,0,0,1,60,90.14a35.77,35.77,0,0,1-12.5-1.93C44,86.92,42.33,85.36,42.33,83.51ZM64,103a4,4,0,1,1-4-4A4,4,0,0,1,64,103Zm8.13-17.71a1.45,1.45,0,0,1,0-2.06,1.75,1.75,0,0,1,1-.43,1.18,1.18,0,0,1,1,.43,1.45,1.45,0,0,1,0,2.06,1.18,1.18,0,0,1-1,.43A1.63,1.63,0,0,1,72.13,85.29Zm0-17.57a1.3,1.3,0,0,1-.43-1,1.28,1.28,0,0,1,.43-1,1.68,1.68,0,0,1,1-.42,1.2,1.2,0,0,1,1,.42,1.48,1.48,0,0,1,.43,1,1.5,1.5,0,0,1-.43,1,1.2,1.2,0,0,1-1,.42A1.68,1.68,0,0,1,72.13,67.72Zm0,8.79a1.3,1.3,0,0,1-.43-1,1.28,1.28,0,0,1,.43-1,1.68,1.68,0,0,1,1-.42,1.15,1.15,0,0,1,1,.42,1.48,1.48,0,0,1,.43,1,1.5,1.5,0,0,1-.43,1,1.2,1.2,0,0,1-1,.42A1.68,1.68,0,0,1,72.13,76.51ZM19,57.24v0Z" style="fill: #0678be"/>
</svg>
