<?xml version="1.0" encoding="utf-8"?>
<!-- Generator: Adobe Illustrator 18.0.0, SVG Export Plug-In . SVG Version: 6.00 Build 0)  -->
<!DOCTYPE svg PUBLIC "-//W3C//DTD SVG 1.1//EN" "http://www.w3.org/Graphics/SVG/1.1/DTD/svg11.dtd">
<svg version="1.1" id="Layer_1" xmlns="http://www.w3.org/2000/svg" xmlns:xlink="http://www.w3.org/1999/xlink" x="0px" y="0px"
	 width="792.1px" height="496.2px" viewBox="0.3 422.1 792.1 496.2" enable-background="new 0.3 422.1 792.1 496.2"
	 xml:space="preserve">
<path fill="#8245D2" d="M604.4,741c-17.6,68.1-64.5,96.2-118.5,111.5c-5.9,1.2-4.7,7-4.7,7l7,55.1c0,0,1.2,4.7,8.2,3.5
	c188.9-21,315.6-164.2,293.4-339c-23.5-120.9-117.4-167.8-204.2-154.9c-86.8,14.1-146.7,95-132.6,181.9
	C463.6,683.5,528.1,738.7,604.4,741z M2.3,606.1C12.9,683.5,78.6,737.5,153.7,741c-18.8,68.1-63.4,96.2-118.5,111.5
	c-5.9,1.2-4.7,7-4.7,7l8.2,55.1c0,0,1.2,4.7,8.2,3.5c187.8-21,315.7-164.2,292.2-339c-22.3-120.9-116.2-166.6-203-154.9
	C48.1,438.3-11.7,519.2,2.3,606.1z"/>
</svg>
