<?xml version="1.0" encoding="utf-8"?>
<!-- Generator: Adobe Illustrator 18.0.0, SVG Export Plug-In . SVG Version: 6.00 Build 0)  -->
<!DOCTYPE svg PUBLIC "-//W3C//DTD SVG 1.1//EN" "http://www.w3.org/Graphics/SVG/1.1/DTD/svg11.dtd">
<svg version="1.1" id="Layer_1" xmlns="http://www.w3.org/2000/svg" xmlns:xlink="http://www.w3.org/1999/xlink" x="0px" y="0px"
	 viewBox="0 0 64.7 64.7" enable-background="new 0 0 64.7 64.7" xml:space="preserve">
<g>
	<path fill="#FFFFFF" d="M60.699,38.899l-5.385-3.133c0.155-1.096,0.23-2.194,0.23-3.339l-0.007-0.792
		c-0.041-0.682-0.083-1.382-0.149-2.086l5.387-3.062c2.135-1.312,2.624-3.222,1.378-5.375l-4.887-8.473
		c-1.012-1.79-2.283-2.165-3.171-2.165c-0.721,0-1.479,0.242-2.229,0.706l-5.214,3.025c-1.8-1.427-3.686-2.53-5.62-3.289v-6.43
		c0-2.502-1.435-3.937-3.937-3.937h-9.512c-2.5,0-3.933,1.434-3.933,3.933v6.488c-1.296,0.528-2.566,1.188-3.796,1.975
		c-0.49,0.329-0.98,0.686-1.47,1.049l-5.569-3.207c-0.76-0.438-1.5-0.661-2.2-0.661c-0.9,0-2.176,0.371-3.133,2.113l-4.966,8.517
		c-0.415,0.785-0.91,1.973-0.463,3.123c0.234,0.854,0.88,1.602,1.936,2.232l5.382,3.083c-0.156,1.086-0.232,2.183-0.232,3.331
		l0.003,0.742c0.042,0.704,0.085,1.425,0.179,2.156l-5.344,3.094c-2.041,1.195-2.625,2.969-1.645,4.994l0.073,0.15l0.035,0.034
		c0.001,0.006,0.004,0.014,0.008,0.024l4.975,8.664c1.001,1.718,2.264,2.078,3.146,2.078c0.71,0,1.465-0.229,2.237-0.678
		l5.222-2.978c1.727,1.361,3.613,2.462,5.623,3.28v6.383c0,2.5,1.434,3.934,3.933,3.934h9.512c2.502,0,3.937-1.434,3.937-3.934
		v-6.487c1.234-0.502,2.494-1.137,3.754-1.894l1.515-1.131l5.567,3.206c2.203,1.269,4.061,0.773,5.395-1.397l4.889-8.478
		c0.181-0.31,0.349-0.618,0.408-0.892c0.301-0.897,0.337-1.696,0.101-2.4C62.343,40.132,61.673,39.42,60.699,38.899z M36.739,53.295
		v6.812h-8.792V53.4c0-1.368-0.862-2.609-2.148-3.09c-2.037-0.757-3.853-1.817-5.551-3.241c-1.026-0.864-2.585-1.003-3.75-0.339
		l-5.547,3.163l-4.522-7.838l5.629-3.255c1.198-0.694,1.837-2.072,1.592-3.427c-0.129-0.73-0.178-1.541-0.222-2.267v-0.586
		c0-1.128,0.091-2.205,0.278-3.292c0.235-1.363-0.412-2.739-1.61-3.423L6.43,22.563l4.576-7.855l5.804,3.341
		c1.128,0.645,2.561,0.571,3.649-0.244c0.614-0.462,1.193-0.893,1.743-1.264c1.163-0.74,2.372-1.345,3.591-1.797
		c1.286-0.475,2.15-1.717,2.15-3.09V4.842h8.792v6.765c0,1.398,0.887,2.647,2.207,3.108c1.873,0.653,3.722,1.737,5.494,3.22
		c1.029,0.865,2.586,1.007,3.771,0.326l5.501-3.191l4.557,7.898l-5.571,3.169c-1.148,0.656-1.794,1.929-1.642,3.246
		c0.092,0.791,0.142,1.597,0.196,2.447v0.594c0,1.145-0.091,2.223-0.278,3.297c-0.234,1.35,0.405,2.72,1.592,3.41l5.691,3.311
		l-4.519,7.833l-5.865-3.376c-1.127-0.642-2.581-0.554-3.621,0.226l-1.812,1.361c-1.203,0.715-2.396,1.293-3.547,1.719
		C37.603,50.681,36.739,51.922,36.739,53.295z"/>
	<path fill="#FFFFFF" d="M45.354,32.306c0-3.53-1.28-6.601-3.805-9.125c-2.492-2.491-5.542-3.754-9.066-3.754
		c-3.527,0-6.579,1.263-9.071,3.754c-2.488,2.492-3.75,5.562-3.75,9.125c0,3.528,1.262,6.579,3.75,9.067
		c2.527,2.527,5.579,3.809,9.071,3.809c3.493,0,6.544-1.281,9.067-3.81S45.354,35.794,45.354,32.306z M40.967,32.31
		c0,2.323-0.824,4.273-2.521,5.965c-1.697,1.698-3.648,2.523-5.964,2.523c-2.319,0-4.271-0.825-5.969-2.523
		c-1.659-1.658-2.465-3.609-2.465-5.965c0-2.391,0.807-4.361,2.465-6.023c1.66-1.661,3.612-2.469,5.968-2.469
		c2.356,0,4.307,0.807,5.964,2.469C40.119,27.959,40.967,29.985,40.967,32.31z"/>
</g>
</svg>
