<?xml version="1.0" encoding="utf-8"?>
<!-- Generator: Adobe Illustrator 18.0.0, SVG Export Plug-In . SVG Version: 6.00 Build 0)  -->
<!DOCTYPE svg PUBLIC "-//W3C//DTD SVG 1.1//EN" "http://www.w3.org/Graphics/SVG/1.1/DTD/svg11.dtd">
<svg version="1.1" id="Layer_1" xmlns="http://www.w3.org/2000/svg" xmlns:xlink="http://www.w3.org/1999/xlink" x="0px" y="0px"
	 viewBox="-0.2 58.7 791.9 496.2" enable-background="new -0.2 58.7 791.9 496.2" xml:space="preserve">
<path fill="#E2F0D6" d="M188.9,234.9c17.6-68.1,64.5-96.2,118.5-111.5c5.9-1.2,4.7-7,4.7-7l-8.2-54c0,0-1.2-4.7-8.2-3.5
	C106.8,80-19.9,223.2,2.3,398c23.5,120.9,118.5,167.8,204.2,154.9c86.8-14.1,146.7-95,132.6-181.9
	C328.5,293.6,264,239.6,188.9,234.9z M789.7,369.8c-11.7-76.3-76.3-131.4-150.2-134.9c18.8-68.1,63.4-96.2,118.5-111.5
	c5.9-1.2,4.7-7,4.7-7l-9.4-54c0,0-1.2-4.7-8.2-3.5C556.2,80,429.4,223.2,452.9,398c22.3,120.9,116.2,167.8,203,154.9
	C743.9,538.8,803.7,457.8,789.7,369.8z"/>
</svg>
