<?xml version="1.0" encoding="utf-8"?>
<!-- Generator: Adobe Illustrator 18.0.0, SVG Export Plug-In . SVG Version: 6.00 Build 0)  -->
<!DOCTYPE svg PUBLIC "-//W3C//DTD SVG 1.1//EN" "http://www.w3.org/Graphics/SVG/1.1/DTD/svg11.dtd">
<svg version="1.1" id="Layer_1" xmlns="http://www.w3.org/2000/svg" xmlns:xlink="http://www.w3.org/1999/xlink" x="0px" y="0px"
	 viewBox="0.3 58.2 791.9 496.2" enable-background="new 0.3 58.2 791.9 496.2" xml:space="preserve">
<path fill="#E2F0D6" d="M604.3,377.1c-17.6,68.1-64.5,96.2-118.5,111.5c-5.9,1.2-4.7,7-4.7,7l7,55.1c0,0,1.2,4.7,8.2,3.5
	C685.2,533.2,811.9,390,789.7,215.2C766.2,94.3,672.3,47.4,585.5,60.3c-86.8,14.1-146.7,95-132.6,181.9
	C463.5,319.6,528,374.8,604.3,377.1z M2.3,242.2c10.6,77.4,76.3,131.4,151.4,134.9c-18.8,68.1-63.4,96.2-118.5,111.5
	c-5.9,1.2-4.7,7-4.7,7l8.2,55.1c0,0,1.2,4.7,8.2,3.5C234.7,533.2,362.6,390,339.1,215.2C316.8,94.3,222.9,48.6,136.1,60.3
	C48.1,74.4-11.7,155.3,2.3,242.2z"/>
</svg>
