<?xml version="1.0" encoding="utf-8"?>
<!-- Generator: Adobe Illustrator 18.0.0, SVG Export Plug-In . SVG Version: 6.00 Build 0)  -->
<!DOCTYPE svg PUBLIC "-//W3C//DTD SVG 1.1//EN" "http://www.w3.org/Graphics/SVG/1.1/DTD/svg11.dtd">
<svg version="1.1" id="Layer_1" xmlns="http://www.w3.org/2000/svg" xmlns:xlink="http://www.w3.org/1999/xlink" x="0px" y="0px"
	 viewBox="66.408 16.2 70.485 67.6" enable-background="new 66.408 16.2 70.485 67.6" xml:space="preserve">
<g>
	<g>
		<g>
			<g>
				<g>
					<path fill="#7CBC48" d="M82.5,83.8c-0.9,0-1.8-0.3-2.6-0.8c-1.4-1-2.1-2.9-1.6-4.6c0-0.1,0-0.2,0.1-0.3l6.3-19.5L68.5,46.8
						c-0.1-0.1-0.2-0.1-0.2-0.2l-0.1-0.1c-0.1-0.1-0.3-0.2-0.4-0.3c-1.2-1.1-1.7-2.9-1.2-4.5c0.6-1.7,2.1-2.9,3.9-3
						c0.1,0,0.2,0,0.2,0h20.4l6.3-19.5c0-0.1,0.1-0.2,0.1-0.2c0.6-1.7,2.2-2.8,4-2.8c1.7,0,3.3,1,4,2.6c0.1,0.2,0.1,0.3,0.2,0.4v0.1
						c0,0.1,0.1,0.2,0.1,0.2l6.2,19.2h20.5c0.1,0,0.2,0,0.3,0c1.8,0.1,3.3,1.3,3.9,3c0.5,1.6,0,3.4-1.2,4.6
						c-0.1,0.1-0.2,0.2-0.3,0.2c0,0-0.1,0.1-0.2,0.1c-0.1,0-0.1,0.1-0.2,0.1l-16.3,11.9l0.9,2.6l5.4,16.8c0,0.1,0.1,0.2,0.1,0.3
						c0.4,1.7-0.2,3.5-1.6,4.6c-1.4,1-3.3,1.1-4.7,0.2c-0.1-0.1-0.2-0.2-0.4-0.3c-0.1-0.1-0.2-0.1-0.3-0.2l-16.3-11.7L85.3,82.7
						c-0.1,0-0.1,0.1-0.2,0.1c-0.2,0.2-0.3,0.2-0.5,0.3C84,83.6,83.2,83.8,82.5,83.8z M101.6,66.1c0.4,0,0.9,0.1,1.2,0.4l17.6,12.8
						l0.1,0.1l0.1,0.1c0.1,0,0.1-0.1,0.1-0.1c0-0.1,0-0.1-0.1-0.2L114,58.5c-0.3-0.9,0-1.8,0.8-2.4l17.6-12.8c0.1,0,0.1-0.1,0.2-0.1
						l0,0c0,0,0,0,0.1,0c0,0,0,0,0-0.1c-0.1,0-0.3,0-0.5-0.1h-21.6c-0.6,0-1.1-0.2-1.5-0.6c-0.3-0.2-0.5-0.5-0.6-0.9l-6.7-20.7v-0.1
						l-0.1-0.2c-0.1,0-0.1,0.1-0.1,0.1c0,0.1,0,0.1-0.1,0.2l-6.7,20.7c-0.3,0.9-1.1,1.5-2,1.5H71c-0.1,0-0.1,0-0.2,0l0,0
						c0,0-0.1,0-0.1,0.1v0.1c0,0,0,0-0.1-0.1l0,0c0.1,0.1,0.2,0.1,0.3,0.2l17.6,12.8c0.7,0.5,1.1,1.5,0.8,2.4l-6.7,20.7
						c0,0.1,0,0.1-0.1,0.2v0.1h0.1l0.1-0.1c0,0,0.1,0,0.1-0.1l17.6-12.8C100.7,66.2,101.2,66.1,101.6,66.1z M70.5,43.1l-1.2,1.8
						l1.3-1.7C70.7,43.2,70.6,43.1,70.5,43.1z"/>
				</g>
			</g>
		</g>
	</g>
</g>
</svg>
