<?xml version="1.0" encoding="utf-8"?>
<!-- Generator: Adobe Illustrator 18.0.0, SVG Export Plug-In . SVG Version: 6.00 Build 0)  -->
<!DOCTYPE svg PUBLIC "-//W3C//DTD SVG 1.1//EN" "http://www.w3.org/Graphics/SVG/1.1/DTD/svg11.dtd">
<svg version="1.1" id="Layer_1" xmlns="http://www.w3.org/2000/svg" xmlns:xlink="http://www.w3.org/1999/xlink" x="0px" y="0px"
	 width="75px" height="75px" viewBox="0 0 75 75" enable-background="new 0 0 75 75" xml:space="preserve">
<path fill="#FFFFFF" d="M16,31.7l18.2,18.2c0,0,0,0,0,0.1c0.9,0.9,2,1.3,3.1,1.3c1.1,0,2.3-0.4,3.1-1.3c0,0,0,0,0-0.1l18.2-18.2
	c1.7-1.7,1.7-4.5,0-6.2c-1.7-1.7-4.5-1.7-6.2,0L37.4,40.6L22.3,25.4c-1.7-1.7-4.5-1.7-6.2,0C14.3,27.1,14.3,29.9,16,31.7z"/>
</svg>
