<?xml version="1.0" encoding="utf-8"?>
<!-- Generator: Adobe Illustrator 18.0.0, SVG Export Plug-In . SVG Version: 6.00 Build 0)  -->
<!DOCTYPE svg PUBLIC "-//W3C//DTD SVG 1.1//EN" "http://www.w3.org/Graphics/SVG/1.1/DTD/svg11.dtd">
<svg version="1.1" id="Layer_1" xmlns="http://www.w3.org/2000/svg" xmlns:xlink="http://www.w3.org/1999/xlink" x="0px" y="0px"
	 viewBox="66.408 16.2 70.485 67.6" enable-background="new 66.408 16.2 70.485 67.6" xml:space="preserve">
<path fill="#7CBC48" d="M136.7,41.7c-0.6-1.7-2.1-2.9-3.9-3c-0.1,0-0.2,0-0.3,0H112l-6.2-19.2c0,0-0.1-0.1-0.1-0.2v-0.1
	c-0.1-0.1-0.1-0.2-0.2-0.4c-0.7-1.6-2.3-2.6-4-2.6c-1.8,0-3.4,1.1-4,2.8c0,0-0.1,0.1-0.1,0.2l-6.3,19.5H70.7c0,0-0.1,0-0.2,0
	c-1.8,0.1-3.3,1.3-3.9,3c-0.5,1.6,0,3.4,1.2,4.5c0.1,0.1,0.3,0.2,0.4,0.3l0.1,0.1c0,0.1,0.1,0.1,0.2,0.2l16.2,11.8l-6.3,19.5
	c-0.1,0.1-0.1,0.2-0.1,0.3c-0.5,1.7,0.2,3.6,1.6,4.6c0.8,0.5,1.7,0.8,2.6,0.8c0.7,0,1.5-0.2,2.1-0.7c0.2-0.1,0.3-0.1,0.5-0.3
	c0.1,0,0.1-0.1,0.2-0.1l16.3-11.8l16.3,11.7c0.1,0.1,0.2,0.1,0.3,0.2c0.2,0.1,0.3,0.2,0.4,0.3c1.4,0.9,3.3,0.8,4.7-0.2
	c1.4-1.1,2-2.9,1.6-4.6c0-0.1-0.1-0.2-0.1-0.3l-5.4-16.8l-0.9-2.6l16.3-11.9c0.1,0,0.1-0.1,0.2-0.1c0.1,0,0.2-0.1,0.2-0.1
	c0.1,0,0.2-0.1,0.3-0.2C136.7,45.1,137.2,43.3,136.7,41.7z"/>
</svg>
