<?xml version="1.0" encoding="utf-8"?>
<!-- Generator: Adobe Illustrator 18.0.0, SVG Export Plug-In . SVG Version: 6.00 Build 0)  -->
<!DOCTYPE svg PUBLIC "-//W3C//DTD SVG 1.1//EN" "http://www.w3.org/Graphics/SVG/1.1/DTD/svg11.dtd">
<svg version="1.1" id="Layer_1" xmlns="http://www.w3.org/2000/svg" xmlns:xlink="http://www.w3.org/1999/xlink" x="0px" y="0px"
	 width="64.7px" height="64.7px" viewBox="0 0 64.7 64.7" enable-background="new 0 0 64.7 64.7" xml:space="preserve">
<g>
	<path fill="#FFFFFF" d="M34.6,16.5c-1.5,0-2.7,1.2-2.7,2.7v17.2c0,1.5,1.2,2.7,2.7,2.7h11c1.5,0,2.7-1.2,2.7-2.7
		c0-1.5-1.2-2.7-2.7-2.7l-8.2,0V19.2C37.3,17.7,36.1,16.5,34.6,16.5z"/>
	<path fill="#FFFFFF" d="M56,12.4C50.6,7,43.4,4,35.7,4s-14.9,3-20.3,8.4C10.8,17,7.9,23.1,7.2,29.6l-2.1-2.3
		c-1-1.1-2.8-1.1-3.8-0.1c-1.1,1-1.2,2.7-0.1,3.8l6.4,6.9c1,1.1,2.8,1.1,3.8,0.1l6.9-6.4c1.1-1,1.2-2.7,0.1-3.8
		c-1-1.1-2.8-1.1-3.8-0.1l-1.8,1.7c0.7-5,3-9.6,6.6-13.1c4.4-4.4,10.2-6.8,16.4-6.8c6.2,0,12.1,2.4,16.4,6.8s6.8,10.2,6.8,16.4
		s-2.4,12.1-6.8,16.4c-4.4,4.4-10.2,6.8-16.4,6.8c-6.2,0-12-2.4-16.4-6.8c-1-1-2.8-1-3.8,0c-1.1,1.1-1.1,2.8,0,3.8
		c5.4,5.4,12.6,8.4,20.3,8.4c7.7,0,14.9-3,20.3-8.4c5.4-5.4,8.4-12.6,8.4-20.3C64.3,25,61.4,17.8,56,12.4z"/>
</g>
</svg>
