<svg xmlns="http://www.w3.org/2000/svg" xmlns:xlink="http://www.w3.org/1999/xlink" version="1.1" x="0px" y="0px" viewBox="1 -1 100 100" style="enable-background:new 1 -1 100 100;" xml:space="preserve"><g><path d="M79.9,81.2V20.5H88v-4H68.2v-3.8c0-4.4-3.6-8-8-8H41.8c-4.4,0-8,3.6-8,8v3.8H14v4h8.1v60.9c0,6.6,5.4,12,12,12h33.8   C74.5,93.2,79.9,87.9,79.9,81.2z M37.8,12.6c0-2.2,1.8-4,4-4h18.3c2.2,0,4,1.8,4,4v3.8H37.8V12.6z M26.1,81.2V20.5h49.8v60.9   c0,4.4-3.6,8-8,8H34.1C29.7,89.2,26.1,85.7,26.1,81.2z"></path><rect x="49" y="30.9" width="4" height="47.1"></rect><rect x="60" y="30.9" width="4" height="47.1"></rect><rect x="38" y="30.9" width="4" height="47.1"></rect></g></svg>