<?xml version="1.0" encoding="utf-8"?>
<!-- Generator: Adobe Illustrator 18.0.0, SVG Export Plug-In . SVG Version: 6.00 Build 0)  -->
<!DOCTYPE svg PUBLIC "-//W3C//DTD SVG 1.1//EN" "http://www.w3.org/Graphics/SVG/1.1/DTD/svg11.dtd">
<svg version="1.1" id="Layer_1" xmlns="http://www.w3.org/2000/svg" xmlns:xlink="http://www.w3.org/1999/xlink" x="0px" y="0px"
	 width="64.7px" height="64.7px" viewBox="0 0 64.7 64.7" enable-background="new 0 0 64.7 64.7" xml:space="preserve">
<path fill="#FFFFFF" d="M52.8,25.8c-0.9-2.1-2.7-4.9-6-8.3c-3.1-3.1-5.6-4.7-7.6-5.5l6.7-6.7c1.1,0.1,3.9,0.9,8.1,5.1
	c4.6,4.6,5.5,7.6,5.7,8.7L52.8,25.8z M15.3,40.6c-1.1-0.8-2.2-1.3-3.1-1.7l23.5-23.5c0.6,0.1,1.8,0.4,3.4,1.3L15.3,40.6z M21.6,46.2
	c-0.5-0.6-1.1-1.2-1.7-1.8c-0.4-0.4-0.8-0.8-1.2-1.2l23.9-23.9c0.4,0.4,0.8,0.7,1.2,1.2c0.7,0.7,1.2,1.3,1.7,1.9L21.6,46.2z
	 M24.3,49.6l23.8-23.8c1,1.7,1.3,2.8,1.4,3.4L26,52.7C25.6,51.8,25,50.7,24.3,49.6z M7.1,53.1l2.1-10.8c1.3,0.3,3.9,1.2,7.7,5
	c4.1,4.1,5.3,6.9,5.6,8.3l-11.1,1.8L7.1,53.1z M56.9,7.3C51.4,1.8,47.4,1,45.5,1c-0.5,0-0.8,0.1-1,0.1l-0.6,0.1L5.4,39.8L0.8,63.4
	l24.3-3.9l38.5-38.5l0.1-0.6C64,19.5,64.6,14.9,56.9,7.3z"/>
</svg>
