<?xml version="1.0" encoding="utf-8"?>
<!-- Generator: Adobe Illustrator 18.0.0, SVG Export Plug-In . SVG Version: 6.00 Build 0)  -->
<!DOCTYPE svg PUBLIC "-//W3C//DTD SVG 1.1//EN" "http://www.w3.org/Graphics/SVG/1.1/DTD/svg11.dtd">
<svg version="1.1" id="Layer_1" xmlns="http://www.w3.org/2000/svg" xmlns:xlink="http://www.w3.org/1999/xlink" x="0px" y="0px"
	 viewBox="0 0 39.7 39.7" enable-background="new 0 0 39.7 39.7" xml:space="preserve">
<g>
	<path fill="#7CBC48" d="M19.8,39.7C8.9,39.7,0,30.8,0,19.8S8.9,0,19.8,0c10.9,0,19.8,8.9,19.8,19.8S30.8,39.7,19.8,39.7z M19.8,3
		C10.6,3,3,10.6,3,19.8c0,9.3,7.6,16.8,16.8,16.8s16.8-7.6,16.8-16.8C36.7,10.6,29.1,3,19.8,3z"/>
</g>
<g>
	<path fill="#7CBC48" d="M24.9,29.3c-0.3-0.5-0.6-1.1-1-1.8c-0.4-0.6-0.8-1.3-1.3-2c-0.5-0.7-0.9-1.4-1.4-2
		c-0.5-0.7-0.9-1.3-1.4-1.9c-0.5,0.6-0.9,1.2-1.4,1.9c-0.5,0.7-0.9,1.4-1.4,2.1c-0.4,0.7-0.9,1.3-1.2,2c-0.4,0.6-0.7,1.2-1,1.7h-3.5
		c0.8-1.6,1.8-3.3,3-5c1.2-1.7,2.3-3.3,3.5-4.8l-6.2-8.9h3.8l4.5,6.6l4.5-6.6H28l-6,8.7c1.2,1.6,2.3,3.2,3.5,5
		c1.2,1.7,2.2,3.4,3.1,5.1H24.9z"/>
</g>
</svg>
