<?xml version="1.0" encoding="utf-8"?>
<!-- Generator: Adobe Illustrator 18.0.0, SVG Export Plug-In . SVG Version: 6.00 Build 0)  -->
<!DOCTYPE svg PUBLIC "-//W3C//DTD SVG 1.1//EN" "http://www.w3.org/Graphics/SVG/1.1/DTD/svg11.dtd">
<svg version="1.1" id="Layer_1" xmlns="http://www.w3.org/2000/svg" xmlns:xlink="http://www.w3.org/1999/xlink" x="0px" y="0px"
	 width="790px" height="792px" viewBox="0 216 790 792" enable-background="new 0 216 790 792" xml:space="preserve">
<g>
	<path fill="#FFFFFF" d="M395,1008C177.6,1008,0,830.4,0,611s177.6-395,395-395s395,177.6,395,395S614.4,1008,395,1008z M395,275.8
		C211.5,275.8,59.8,427.5,59.8,611c0,185.5,151.6,335.2,335.2,335.2S730.2,794.5,730.2,611C732.2,427.5,580.5,275.8,395,275.8z"/>
</g>
<g>
	<path fill="#FFFFFF" d="M496.7,800.5c-6-10-12-21.9-19.9-35.9c-8-12-16-25.9-25.9-39.9c-10-14-18-27.9-27.9-39.9
		c-10-14-18-25.9-27.9-37.9c-10,12-18,23.9-27.9,37.9s-18,27.9-27.9,41.9c-8,14-18,25.9-23.9,39.9c-8,12-14,23.9-19.9,33.9h-69.8
		c16-31.9,35.9-65.8,59.8-99.7s45.9-65.8,69.8-95.8L231.4,427.5h75.8L397,559.1l89.8-131.7h71.8L438.9,601
		c23.9,31.9,45.9,63.8,69.8,99.7c23.9,33.9,43.9,67.8,61.8,101.7h-73.8V800.5z"/>
</g>
</svg>
