<?xml version="1.0" encoding="utf-8"?>
<!-- Generator: Adobe Illustrator 18.0.0, SVG Export Plug-In . SVG Version: 6.00 Build 0)  -->
<!DOCTYPE svg PUBLIC "-//W3C//DTD SVG 1.1//EN" "http://www.w3.org/Graphics/SVG/1.1/DTD/svg11.dtd">
<svg version="1.1" id="Layer_1" xmlns="http://www.w3.org/2000/svg" xmlns:xlink="http://www.w3.org/1999/xlink" x="0px" y="0px"
	 width="64.7px" height="64.7px" viewBox="0 0 64.7 64.7" enable-background="new 0 0 64.7 64.7" xml:space="preserve">
<g>
	<path fill="#FFFFFF" d="M59.1,5H4.9C3.3,5,2,6.3,2,7.9v40.4c0,1.6,1.3,2.9,2.9,2.9h5.2l7.9,9.6c0.4,0.5,1.1,0.8,1.7,0.8
		c0.7,0,1.3-0.3,1.7-0.8l7.9-9.6h29.7c1.6,0,2.9-1.3,2.9-2.9V7.9C62,6.3,60.7,5,59.1,5z M57.6,9.5v37.3H28.4c-0.7,0-1.3,0.3-1.7,0.8
		l-6.9,8.3l-6.9-8.3c-0.4-0.5-1.1-0.8-1.7-0.8H6.4V9.5H57.6z"/>
	<path fill="#FFFFFF" d="M15.9,30.4h32.4c1,0,1.8-1,1.8-2.2c0-1.2-0.8-2.2-1.8-2.2H15.9c-1,0-1.8,1-1.8,2.2
		C14,29.4,14.8,30.4,15.9,30.4z"/>
	<path fill="#FFFFFF" d="M15.9,20h32.4c1,0,1.8-1,1.8-2.2s-0.8-2.2-1.8-2.2H15.9c-1,0-1.8,1-1.8,2.2S14.8,20,15.9,20z"/>
	<path fill="#FFFFFF" d="M15.9,40.7h32.4c1,0,1.8-1,1.8-2.2s-0.8-2.2-1.8-2.2H15.9c-1,0-1.8,1-1.8,2.2S14.8,40.7,15.9,40.7z"/>
</g>
</svg>
